<?xml version="1.0" encoding="UTF-8"?>
<!DOCTYPE svg PUBLIC "-//W3C//DTD SVG 1.1//EN" "http://www.w3.org/Graphics/SVG/1.1/DTD/svg11.dtd">
<svg width="1099pt" height="499pt" viewBox="0 0 1099 499" version="1.1" xmlns="http://www.w3.org/2000/svg">
<g id="#000000ff">
<path fill="#000000" opacity="1.00" d=" M 208.30 0.00 L 209.57 0.00 C 214.37 2.66 215.80 8.44 218.15 13.01 C 220.44 17.39 221.88 22.21 221.67 27.20 C 228.07 22.58 237.54 24.86 241.84 31.29 C 239.06 34.40 234.25 34.19 231.60 37.45 C 229.38 40.03 226.08 42.92 227.32 46.73 C 229.80 50.83 235.40 50.33 239.10 52.75 C 235.98 55.88 231.53 54.46 227.98 53.03 C 223.34 51.54 220.74 44.92 224.00 41.00 C 227.24 37.09 230.28 32.81 234.89 30.39 C 231.60 29.20 227.69 28.65 224.57 30.61 C 222.52 31.75 219.57 33.85 217.60 31.38 C 216.56 27.76 217.56 23.73 216.18 20.12 C 214.17 14.63 211.50 9.37 208.19 4.56 C 206.61 6.12 205.16 7.79 203.58 9.35 C 202.60 13.57 201.06 17.69 200.86 22.06 C 200.72 25.22 200.19 28.35 199.21 31.37 C 194.18 30.11 188.24 27.70 183.52 31.09 C 186.06 33.96 189.90 35.71 191.51 39.36 C 194.09 44.65 191.36 51.50 186.34 54.25 C 181.60 56.96 176.69 60.51 170.91 59.73 C 165.42 59.86 159.95 55.61 159.59 49.97 C 159.56 45.42 162.47 41.63 163.77 37.42 C 159.33 38.45 156.98 42.50 153.79 45.32 C 150.92 41.71 150.49 36.89 147.85 33.17 C 145.13 29.26 142.40 25.26 138.73 22.16 C 136.09 27.74 135.73 34.12 136.92 40.13 C 137.52 42.09 136.48 43.87 135.66 45.58 C 136.27 47.07 137.02 48.49 137.52 50.02 C 133.07 50.46 127.60 49.63 124.41 53.52 C 127.84 53.62 131.41 53.13 134.72 54.24 C 137.97 55.88 140.78 58.72 142.07 62.15 C 143.17 67.38 141.37 72.92 138.29 77.17 C 135.31 81.36 129.64 80.93 125.10 81.59 C 119.52 82.34 113.72 80.24 110.02 75.98 C 107.49 72.99 107.50 68.86 107.06 65.17 C 103.25 66.61 103.25 71.21 100.44 73.51 C 94.35 74.75 88.41 71.43 82.29 71.52 C 83.86 73.58 86.56 73.52 88.85 74.08 C 93.18 74.69 95.95 78.45 99.74 80.25 C 103.76 82.09 106.45 85.85 110.48 87.64 C 114.58 89.81 119.43 90.17 123.25 92.92 C 131.66 88.84 139.98 84.58 148.13 80.00 C 151.63 77.67 153.88 73.63 153.48 69.37 C 153.91 68.79 154.76 67.64 155.18 67.06 C 159.05 68.88 162.34 72.86 167.00 72.13 C 172.51 71.44 177.63 69.08 183.00 67.76 C 187.48 66.19 192.32 66.18 196.84 64.80 C 201.31 62.51 205.40 59.41 208.39 55.34 C 209.32 53.56 211.30 54.40 212.17 55.72 C 214.61 58.97 219.97 58.49 221.23 62.81 C 226.01 62.76 230.78 63.51 235.40 64.71 C 236.84 64.95 237.98 65.91 238.84 67.05 C 237.53 69.49 234.44 69.00 232.14 68.83 C 222.20 67.50 212.09 67.86 202.21 69.46 C 194.32 71.56 186.02 71.74 178.22 74.25 C 168.34 78.03 158.08 80.88 148.58 85.58 C 141.65 90.57 133.54 93.55 126.38 98.20 C 131.22 99.71 134.43 103.84 137.16 107.86 C 137.98 109.04 138.49 110.42 138.14 111.87 C 136.45 112.03 134.40 112.40 133.20 110.87 C 130.04 107.66 126.64 104.41 125.04 100.10 C 120.25 95.89 113.43 96.30 108.35 92.68 C 102.78 88.96 97.27 85.13 91.84 81.21 C 86.92 77.71 80.48 77.64 74.70 78.19 C 73.38 76.49 72.11 74.76 70.87 73.01 C 77.28 65.66 88.33 66.88 96.79 69.27 C 98.50 66.01 100.32 62.58 103.60 60.64 C 106.31 58.76 109.74 59.15 112.85 59.18 C 112.69 63.04 111.79 66.98 112.76 70.81 C 114.05 74.54 118.04 76.83 121.87 76.86 C 125.84 76.94 129.78 75.97 133.50 74.66 C 137.45 72.31 137.74 67.06 137.05 62.99 C 136.48 60.23 133.37 59.24 131.01 58.53 C 127.52 57.33 123.35 60.60 120.41 57.56 C 116.45 54.88 120.09 49.99 122.96 48.01 C 126.02 45.14 130.42 45.09 134.24 46.21 C 129.68 37.10 132.10 26.27 136.91 17.79 C 137.91 16.85 139.54 17.14 140.81 16.74 C 147.59 21.85 152.16 29.05 155.86 36.57 C 158.35 34.76 160.76 32.31 164.03 32.14 C 166.49 31.84 168.80 32.94 171.05 33.77 C 171.45 35.47 171.88 37.16 172.31 38.85 C 167.53 39.96 164.04 44.96 164.38 49.80 C 164.64 53.22 168.28 54.90 171.22 55.53 C 177.35 55.78 183.34 52.55 187.09 47.83 C 187.80 45.03 187.55 41.68 185.37 39.57 C 182.49 36.48 178.21 35.54 174.41 34.10 C 178.09 26.46 187.48 23.56 195.40 24.95 C 195.92 19.13 197.07 13.18 200.20 8.15 C 202.37 4.96 205.34 2.42 208.30 0.00 M 206.64 63.55 C 208.99 63.22 211.34 62.93 213.70 62.62 C 212.23 61.70 210.74 60.63 208.96 60.47 C 207.75 61.08 207.33 62.48 206.64 63.55 M 154.55 77.29 C 156.37 76.56 158.95 76.30 159.28 73.88 C 157.08 73.93 154.21 74.36 154.55 77.29 Z"/>
<path fill="#000000" opacity="1.00" d=" M 201.95 39.16 C 203.41 35.81 206.56 32.13 210.66 33.37 C 213.48 34.94 209.92 37.01 208.75 38.40 C 210.27 38.85 211.78 39.34 213.27 39.88 C 211.96 42.89 209.17 44.49 205.93 44.33 C 204.16 43.01 201.98 41.66 201.95 39.16 Z"/>
<path fill="#000000" opacity="1.00" d=" M 311.10 55.29 C 314.31 53.40 317.84 51.74 319.86 48.44 C 320.76 49.17 321.65 49.91 322.55 50.65 C 322.79 51.58 323.03 52.50 323.27 53.43 C 323.93 53.52 325.24 53.69 325.89 53.77 C 327.92 56.10 328.20 58.95 326.89 61.73 C 329.95 60.97 330.60 57.31 332.16 55.01 C 334.74 57.18 331.78 59.74 331.11 62.09 C 330.16 64.99 328.61 67.58 326.94 70.11 C 326.28 73.01 326.98 76.08 326.14 78.97 C 322.38 89.94 317.78 100.60 313.21 111.26 C 307.36 122.76 305.27 135.63 300.75 147.61 C 300.19 152.33 298.38 156.73 296.26 160.94 C 296.90 161.49 298.19 162.57 298.83 163.11 C 298.14 163.39 296.76 163.95 296.08 164.23 C 293.53 172.06 291.59 180.05 290.09 188.15 C 289.50 192.23 287.79 196.04 285.91 199.67 C 281.18 206.10 280.47 214.36 277.60 221.62 C 276.57 223.93 276.34 226.47 276.00 228.96 C 275.40 229.65 274.79 230.35 274.18 231.04 C 274.59 233.93 272.75 236.23 271.87 238.81 C 270.16 250.45 262.53 260.15 260.54 271.73 C 258.19 272.98 256.83 275.36 256.75 278.00 C 256.19 283.90 253.04 289.11 252.14 294.93 C 251.60 298.52 248.68 301.36 249.01 305.13 C 248.24 307.05 247.31 308.92 246.89 310.96 C 245.83 318.05 242.85 324.70 241.87 331.83 C 239.84 335.96 239.53 340.64 237.69 344.84 C 236.35 348.01 236.07 351.50 234.83 354.71 C 231.27 364.41 229.42 374.60 226.54 384.50 C 231.00 381.67 233.99 377.31 237.51 373.50 C 240.37 368.25 243.96 363.43 247.68 358.76 C 250.32 355.59 251.10 351.04 254.86 348.84 C 254.97 348.20 255.18 346.93 255.29 346.29 C 257.00 344.78 259.20 343.38 259.42 340.88 C 259.70 337.38 262.45 335.08 264.10 332.24 C 266.61 325.76 273.11 321.82 275.47 315.26 C 276.61 312.43 278.72 310.12 281.29 308.51 C 283.30 305.33 285.17 302.08 286.28 298.47 C 289.10 293.73 292.01 288.90 296.06 285.09 C 298.33 283.04 298.34 279.67 300.21 277.34 C 301.66 275.17 304.14 273.86 305.44 271.61 C 307.17 265.11 312.58 260.66 316.29 255.31 C 319.78 249.61 324.01 244.38 327.31 238.56 C 329.13 234.74 330.59 230.60 333.59 227.50 C 341.59 220.50 345.27 210.11 352.65 202.55 C 355.39 200.17 356.09 196.45 358.16 193.58 C 360.68 193.16 362.00 191.60 361.62 189.02 C 363.76 186.58 366.90 184.54 367.24 181.02 C 367.69 177.52 370.06 174.80 371.99 172.00 C 374.34 168.48 379.02 166.99 380.61 162.91 C 381.84 159.90 383.47 157.07 385.84 154.82 C 389.03 150.27 392.22 145.71 395.19 141.01 C 401.74 133.06 405.49 123.20 412.27 115.40 C 415.95 109.47 420.13 103.87 423.84 97.96 C 426.12 93.39 429.88 89.85 432.67 85.63 C 437.09 79.37 440.79 72.59 445.69 66.67 C 446.50 65.48 447.75 64.46 448.02 62.99 C 447.27 61.35 445.90 59.88 446.12 57.95 C 447.06 58.83 447.98 59.74 448.91 60.65 C 450.68 57.56 453.93 55.95 456.71 53.92 C 457.60 54.84 458.07 56.38 459.37 56.83 C 460.81 55.55 462.11 54.12 463.49 52.77 C 465.72 53.87 468.53 55.18 470.78 53.35 C 472.13 53.71 473.48 54.07 474.84 54.43 C 474.38 55.84 473.92 57.25 473.51 58.67 C 475.65 57.62 476.89 55.28 479.10 54.43 C 480.97 53.72 481.29 56.25 482.06 57.27 C 483.79 55.94 485.28 52.70 487.89 53.95 C 488.42 55.68 487.35 57.38 487.09 59.08 C 488.74 57.24 490.24 55.26 492.07 53.59 L 492.96 54.14 C 492.17 57.23 489.68 59.73 489.77 63.06 C 490.07 65.87 487.81 67.63 486.00 69.36 C 484.90 75.71 479.61 80.03 476.79 85.60 C 473.28 86.57 474.73 91.43 471.30 92.58 C 472.21 97.10 468.25 100.77 466.13 104.40 C 465.30 108.85 461.09 111.28 458.96 115.02 C 456.24 119.82 452.39 123.84 449.72 128.67 C 446.77 133.94 442.56 138.35 439.55 143.57 C 437.42 147.08 434.66 150.20 432.89 153.93 C 430.94 158.10 427.39 161.18 425.04 165.09 C 423.02 168.37 420.69 171.45 418.31 174.48 C 414.36 179.28 411.93 185.13 407.75 189.77 C 402.47 197.95 395.38 205.15 392.18 214.50 C 384.94 222.66 378.88 231.88 373.32 241.25 C 365.73 249.97 360.83 260.61 353.49 269.52 C 349.48 274.38 346.62 280.06 342.61 284.92 C 338.43 289.84 336.00 295.95 332.18 301.13 C 329.21 304.17 325.71 306.89 324.02 310.94 C 319.25 318.73 313.27 325.73 308.60 333.60 C 306.06 337.96 302.23 341.44 300.01 346.01 C 296.81 352.57 290.72 357.27 288.09 364.13 C 286.91 366.87 284.68 369.03 283.77 371.90 C 282.60 375.94 278.85 378.34 276.95 381.96 C 274.25 387.31 269.41 391.50 268.34 397.63 C 264.42 401.61 261.27 406.27 257.40 410.27 C 254.10 412.12 252.86 415.82 250.41 418.49 C 250.48 423.05 247.75 427.11 244.72 430.30 C 244.66 430.86 244.56 431.99 244.50 432.55 C 241.07 435.20 241.78 440.74 237.43 442.36 C 234.41 445.44 232.35 449.85 228.14 451.48 C 227.37 454.03 226.39 456.56 224.60 458.59 C 222.55 461.49 218.83 463.10 217.95 466.77 C 216.72 471.14 213.04 474.03 210.65 477.72 C 207.17 481.90 205.74 487.44 201.62 491.14 C 200.24 490.14 199.09 488.89 198.09 487.52 C 196.55 488.54 195.21 490.94 193.06 490.22 C 189.43 489.10 186.35 492.18 182.91 492.81 C 181.95 491.96 181.72 489.72 180.23 489.80 C 176.47 492.30 175.15 497.28 170.79 498.99 C 165.58 495.38 170.33 488.21 167.13 484.02 L 166.33 484.64 C 166.20 485.19 165.95 486.28 165.83 486.83 C 164.60 486.76 163.37 486.68 162.15 486.62 L 161.95 485.84 C 162.57 485.99 163.79 486.27 164.40 486.41 C 165.34 482.74 165.39 478.95 165.98 475.23 C 167.98 472.50 167.85 468.94 169.12 465.89 C 169.82 464.27 168.45 462.73 168.24 461.14 C 168.87 457.57 171.69 454.72 171.75 451.01 C 171.57 448.95 173.19 447.62 174.18 446.04 C 173.39 441.16 174.31 435.66 177.56 431.80 C 177.32 430.52 177.08 429.25 176.82 427.98 C 179.30 420.77 182.21 413.46 182.72 405.81 C 185.32 399.61 187.14 393.11 187.77 386.41 C 190.35 380.57 191.66 374.32 193.17 368.15 C 195.04 361.83 198.25 355.82 198.63 349.13 C 199.52 346.05 200.11 342.88 200.94 339.79 C 202.36 336.04 206.40 331.63 202.90 327.91 C 205.54 327.58 206.10 324.94 204.82 322.93 C 205.31 322.71 206.28 322.25 206.77 322.03 C 207.68 319.39 209.38 316.97 209.57 314.12 C 210.17 303.71 215.52 294.49 218.61 284.75 C 218.77 282.61 221.35 278.97 217.59 278.85 C 218.12 278.55 219.16 277.96 219.68 277.66 C 220.33 272.87 223.78 269.44 225.69 265.22 C 225.19 263.49 224.80 261.74 224.40 260.00 C 224.87 259.56 225.79 258.70 226.25 258.26 C 230.38 243.89 233.58 229.27 237.86 214.93 C 238.59 211.89 240.89 209.63 242.33 206.94 C 241.91 205.77 241.29 204.71 240.46 203.75 C 242.10 196.66 245.13 189.99 246.89 182.93 C 247.52 176.16 249.83 169.70 251.37 163.10 C 251.88 159.79 255.02 157.78 255.50 154.48 C 258.37 151.08 257.62 146.41 259.48 142.57 C 260.43 140.50 260.83 138.26 260.61 136.00 C 260.39 133.73 262.53 132.36 263.58 130.62 C 265.69 126.72 265.77 122.20 266.45 117.93 C 267.28 114.14 268.13 110.29 269.82 106.77 C 271.41 104.07 270.26 100.69 271.86 97.98 C 273.68 94.59 274.19 90.58 276.59 87.49 C 278.32 85.21 278.37 82.14 280.00 79.78 C 281.12 78.06 279.18 75.91 280.21 74.16 C 281.91 71.00 283.73 67.76 286.63 65.54 C 286.68 64.96 286.79 63.80 286.85 63.22 C 288.85 61.49 290.00 59.09 291.07 56.73 C 291.82 56.91 293.31 57.26 294.06 57.44 C 295.16 55.75 296.45 54.19 297.89 52.78 C 298.37 53.30 299.34 54.33 299.82 54.84 C 300.14 54.35 300.79 53.35 301.12 52.86 C 301.93 53.26 302.73 53.67 303.54 54.08 C 304.94 52.90 306.37 51.77 307.84 50.68 C 308.16 51.29 308.82 52.50 309.15 53.10 C 309.65 52.87 310.65 52.40 311.14 52.17 C 311.13 52.95 311.11 54.51 311.10 55.29 Z"/>
<path fill="#000000" opacity="1.00" d=" M 143.31 57.70 C 142.69 53.96 148.32 48.03 151.35 52.52 C 150.69 53.74 150.04 54.97 149.41 56.21 C 150.26 56.37 151.96 56.69 152.81 56.85 C 152.50 59.07 151.09 60.61 149.16 61.62 C 147.14 60.50 144.04 60.28 143.31 57.70 Z"/>
<path fill="#000000" opacity="1.00" d=" M 755.83 53.90 C 756.50 52.84 757.21 51.78 757.94 50.74 C 760.16 53.84 759.21 58.20 762.12 60.88 C 763.51 59.35 764.77 57.72 766.03 56.08 C 766.99 57.81 767.94 59.56 768.95 61.28 C 770.23 59.94 771.16 57.93 773.19 57.60 C 774.55 60.42 771.35 62.67 770.07 64.89 C 770.71 65.53 771.38 66.15 772.07 66.76 C 769.80 69.38 769.01 72.76 767.92 75.95 C 766.93 79.16 764.12 81.34 762.99 84.47 C 758.99 89.44 755.88 95.01 752.62 100.46 C 751.10 103.24 748.37 105.05 746.69 107.70 C 740.45 117.30 732.76 125.81 725.92 134.95 C 721.81 142.03 717.08 148.68 712.07 155.14 C 708.66 161.48 702.68 165.80 698.77 171.78 C 697.26 173.98 694.92 175.57 693.93 178.11 C 692.84 180.78 691.35 183.26 689.55 185.49 C 685.14 191.02 682.43 197.64 678.38 203.40 C 674.43 210.04 670.72 216.80 667.60 223.87 C 663.75 229.86 661.12 236.49 657.75 242.75 C 656.39 247.13 653.29 250.67 651.86 255.01 C 660.76 253.07 669.90 253.67 678.93 253.07 C 683.55 252.48 688.18 253.20 692.81 253.19 C 696.00 253.70 699.46 253.48 702.35 255.14 C 703.39 258.57 706.89 260.21 709.98 261.39 C 710.16 263.76 710.47 266.12 710.87 268.46 C 709.65 269.02 708.16 269.17 707.21 270.18 C 706.47 272.14 707.42 274.99 705.29 276.22 C 702.91 277.37 700.31 278.04 698.17 279.64 C 698.41 280.52 698.89 282.28 699.13 283.16 C 695.35 283.31 691.70 284.36 687.95 284.63 C 687.44 285.06 686.44 285.93 685.93 286.36 C 681.96 286.47 677.98 286.37 674.04 286.95 C 671.59 287.47 669.26 286.41 667.07 285.49 C 666.33 285.64 664.84 285.95 664.10 286.10 C 662.54 285.71 660.99 285.35 659.43 285.03 C 658.30 286.89 656.36 287.77 654.32 288.26 C 653.91 287.78 653.10 286.81 652.70 286.32 C 650.18 286.60 647.65 286.48 645.17 286.07 C 638.38 287.10 632.04 290.28 625.04 290.19 C 618.84 289.85 613.06 292.57 606.96 293.21 C 602.94 293.59 599.01 294.98 594.93 294.57 C 591.32 294.21 587.70 294.15 584.09 294.17 C 583.52 294.93 582.97 295.71 582.45 296.49 C 580.89 296.89 579.33 297.27 577.80 297.68 C 577.46 296.16 577.32 294.61 576.98 293.10 C 577.31 292.13 577.62 291.16 577.92 290.19 C 575.55 290.67 573.19 291.22 570.90 291.98 C 569.26 290.94 567.43 289.32 568.49 287.17 C 569.71 283.82 569.38 280.33 568.13 277.04 C 566.21 276.78 564.45 276.05 562.91 274.91 C 565.40 272.02 569.35 271.93 572.73 270.80 C 579.08 268.83 585.53 267.20 592.09 266.14 C 594.65 264.51 594.57 260.81 596.90 258.90 C 602.01 254.12 604.74 247.53 609.29 242.29 C 614.65 234.35 621.96 227.73 625.89 218.87 C 629.19 213.95 630.90 208.16 634.66 203.53 C 639.88 195.22 647.39 188.46 651.40 179.38 C 653.11 175.54 656.51 172.78 658.07 168.86 C 659.16 165.88 661.90 163.96 663.14 161.05 C 664.86 157.01 668.69 154.40 670.30 150.30 C 672.72 144.68 678.13 141.04 680.23 135.26 C 683.57 131.68 685.30 127.05 688.16 123.13 C 690.02 120.30 692.46 117.84 693.87 114.72 C 697.92 106.87 704.95 101.26 709.73 93.91 C 711.94 90.08 715.51 87.22 717.24 83.10 C 722.23 77.94 725.59 71.46 729.66 65.58 C 731.80 63.39 734.72 62.07 736.50 59.48 C 737.76 57.44 740.13 57.61 742.17 58.16 C 743.29 57.14 744.40 56.10 745.55 55.08 C 748.14 58.56 742.31 61.23 743.54 64.99 C 746.10 62.50 746.95 58.87 749.26 56.22 C 751.60 55.94 753.84 55.21 755.83 53.90 M 746.20 64.55 C 746.04 64.97 745.72 65.82 745.56 66.24 C 747.07 69.44 749.39 62.65 746.20 64.55 M 615.13 288.47 C 613.71 291.50 618.50 288.41 615.13 288.47 Z"/>
<path fill="#000000" opacity="1.00" d=" M 602.92 57.12 C 603.88 55.89 604.79 54.61 605.96 53.56 C 607.94 54.10 609.89 54.88 611.99 54.76 C 615.46 57.01 619.76 57.34 623.19 59.66 C 624.50 59.63 626.73 58.22 627.38 60.01 C 627.20 61.90 626.76 63.76 626.51 65.65 C 629.89 64.35 629.12 58.30 633.45 58.97 C 633.56 59.83 633.78 61.55 633.89 62.42 C 635.10 60.87 635.63 58.32 637.89 57.98 C 638.76 59.64 638.15 61.45 637.94 63.18 C 638.68 63.20 640.17 63.23 640.92 63.24 C 640.52 64.69 640.20 66.19 639.39 67.47 C 636.45 72.17 633.63 76.96 630.57 81.58 C 629.28 86.40 628.48 91.47 625.81 95.79 C 623.67 99.10 622.42 102.87 620.17 106.11 C 617.14 110.57 615.73 115.99 612.17 120.11 C 609.99 122.74 608.51 125.86 606.41 128.55 C 601.10 134.79 599.61 143.37 594.13 149.51 C 592.79 154.05 589.71 157.79 588.31 162.32 C 584.19 169.16 578.90 175.35 575.85 182.82 C 570.05 188.12 568.83 196.29 564.64 202.67 C 563.23 204.55 561.63 206.28 560.40 208.28 C 569.30 208.12 578.21 206.74 587.12 207.36 C 588.98 207.28 589.95 209.02 591.08 210.19 C 592.42 209.92 593.76 209.64 595.10 209.34 C 599.01 210.81 601.66 214.12 603.11 217.94 C 603.26 220.95 602.64 223.96 602.75 226.99 C 602.97 228.48 601.25 229.00 600.16 229.34 C 597.38 230.07 594.94 231.71 592.16 232.42 C 583.29 234.19 574.65 236.97 565.76 238.65 C 562.60 238.96 559.55 239.93 556.91 241.70 C 552.80 242.13 549.12 244.13 545.10 244.91 C 542.64 245.61 539.57 245.86 538.39 248.52 C 534.11 255.76 532.14 264.24 526.98 271.01 C 525.44 272.72 525.15 275.04 524.28 277.08 C 520.74 280.48 516.78 284.03 515.79 289.09 C 515.35 291.59 516.18 295.05 513.18 296.23 C 511.64 297.51 510.14 295.67 508.79 295.04 C 508.70 294.24 508.52 292.63 508.43 291.83 C 506.96 293.23 505.50 294.65 503.97 296.00 C 499.35 296.25 494.58 295.87 490.89 292.77 C 490.52 294.30 490.15 295.84 489.76 297.37 C 487.62 296.27 486.60 294.11 485.71 292.01 C 482.31 293.37 479.15 296.66 475.25 295.67 C 475.00 291.99 479.02 289.53 480.20 286.14 C 482.30 277.30 488.12 269.95 491.43 261.54 C 492.61 258.03 495.10 255.14 496.07 251.56 C 486.42 250.81 476.94 252.78 467.52 254.60 C 464.70 255.20 461.20 254.62 459.08 256.96 C 453.98 263.75 449.41 270.93 445.45 278.45 C 443.95 281.69 440.78 283.76 439.40 287.06 C 436.09 293.02 432.53 298.83 430.03 305.19 C 429.07 304.77 428.11 304.36 427.16 303.95 C 425.90 304.57 424.84 306.34 423.25 305.79 C 419.02 304.98 416.78 300.89 413.75 298.26 C 411.65 301.05 409.00 303.58 405.18 302.92 C 403.36 301.79 401.48 300.75 399.57 299.79 C 398.66 300.84 397.82 301.96 396.74 302.86 C 395.09 303.39 393.46 302.31 391.88 301.94 C 390.42 301.79 388.67 302.23 387.56 300.98 C 389.23 295.39 394.63 292.23 396.79 286.89 C 395.79 281.91 400.43 278.70 402.73 274.83 C 408.95 268.13 412.05 259.05 419.11 253.07 C 422.39 248.32 424.55 242.82 428.33 238.38 C 431.19 235.47 431.26 231.07 433.73 227.87 C 437.15 220.22 443.01 214.00 446.32 206.30 C 447.79 203.25 450.37 200.93 451.98 197.97 C 454.34 192.43 458.53 187.97 462.29 183.37 C 464.89 180.76 465.77 176.97 468.47 174.45 C 474.67 168.13 478.50 160.01 484.31 153.37 C 492.95 142.37 502.14 131.81 511.41 121.33 C 515.25 118.01 517.50 113.43 520.31 109.30 C 524.55 103.89 528.31 98.11 532.90 92.97 C 538.46 84.16 546.28 76.40 548.99 66.08 C 550.81 63.83 552.95 61.86 554.67 59.52 C 558.43 59.08 562.23 58.76 566.03 58.90 C 570.74 59.09 575.32 57.81 579.92 56.98 C 587.57 56.48 595.28 56.15 602.92 57.12 M 558.34 121.43 C 555.08 127.47 550.98 133.22 545.90 137.88 C 543.58 142.35 539.30 145.29 536.59 149.52 C 533.13 154.94 527.42 158.27 523.71 163.47 C 519.51 170.81 512.67 176.32 509.02 184.01 C 503.61 191.94 497.23 199.19 492.28 207.44 C 489.82 211.49 486.28 214.84 484.33 219.19 C 489.23 218.42 494.11 217.54 499.04 216.92 C 504.07 216.44 508.81 214.44 513.87 214.07 C 516.30 210.34 517.98 206.17 520.55 202.52 C 523.00 199.08 524.74 195.22 526.52 191.41 C 534.42 176.42 542.52 161.55 550.53 146.62 C 552.87 143.82 552.65 139.81 555.13 137.11 C 558.99 132.55 560.80 126.74 563.86 121.68 C 565.27 120.25 563.12 119.42 562.36 118.55 C 561.00 119.49 559.58 120.34 558.34 121.43 M 512.01 287.46 C 511.53 288.86 512.00 289.36 513.42 288.95 C 513.88 287.55 513.41 287.05 512.01 287.46 Z"/>
<path fill="#000000" opacity="1.00" d=" M 871.70 60.64 C 873.46 59.38 873.21 56.78 874.00 54.93 C 874.61 55.31 875.83 56.08 876.45 56.46 C 877.18 57.88 875.95 59.55 875.84 61.04 C 877.48 60.18 879.00 58.82 880.93 58.68 C 881.99 59.59 882.94 60.62 883.94 61.63 C 884.97 60.51 886.00 59.38 887.05 58.26 C 888.56 63.00 891.59 67.14 892.76 72.01 C 892.87 74.59 890.65 76.31 889.27 78.21 C 886.51 81.24 885.21 85.43 881.75 87.82 C 877.92 90.59 876.48 95.25 874.10 99.13 C 872.35 102.80 871.51 106.91 868.91 110.15 C 865.76 116.60 862.52 123.01 859.68 129.60 C 856.29 134.70 853.90 140.39 850.23 145.30 C 846.45 150.61 844.94 157.07 841.43 162.52 C 839.21 166.41 838.78 171.29 835.46 174.52 C 831.95 178.21 829.42 182.67 827.22 187.23 C 825.51 191.08 822.05 193.85 820.62 197.85 C 817.90 204.27 814.44 210.31 811.15 216.44 C 806.28 223.77 803.17 232.10 798.70 239.67 C 797.40 242.53 795.09 244.84 794.02 247.79 C 800.28 247.86 806.49 246.20 812.81 246.29 C 819.52 245.08 826.35 245.74 833.13 245.43 C 839.41 245.96 845.71 244.70 851.98 245.74 C 854.16 248.70 856.18 251.82 859.05 254.19 C 858.51 256.82 856.81 259.21 857.12 261.97 C 853.92 261.91 855.65 264.79 855.63 266.70 C 854.65 267.92 852.97 268.32 851.76 269.24 C 851.99 270.05 852.45 271.67 852.68 272.48 C 851.16 272.42 849.65 272.37 848.16 272.31 C 848.38 273.00 848.83 274.40 849.05 275.09 C 845.46 276.07 841.73 275.80 838.07 275.54 C 836.10 276.20 834.10 277.42 831.97 277.02 C 830.66 276.14 830.59 274.48 830.11 273.15 C 828.61 273.55 827.10 273.97 825.60 274.32 C 825.83 274.98 826.27 276.32 826.50 276.98 C 822.32 276.70 816.42 280.81 813.50 276.44 C 814.90 275.91 816.30 275.37 817.70 274.81 C 813.94 273.70 810.04 274.72 806.27 275.21 C 803.27 276.95 799.60 275.16 796.66 277.03 C 796.03 276.86 794.78 276.52 794.16 276.36 C 793.12 276.91 792.09 277.45 791.06 277.99 C 786.23 276.95 781.41 278.98 776.59 279.45 C 776.36 280.61 776.13 281.77 775.90 282.94 C 772.76 284.07 769.20 284.09 766.40 286.06 C 766.01 285.78 765.22 285.22 764.83 284.95 C 761.56 285.28 758.27 286.26 755.02 285.30 C 753.79 285.94 752.53 286.61 751.11 286.58 C 745.08 286.89 739.06 287.93 733.01 287.36 C 728.96 286.52 727.24 282.66 725.52 279.38 C 723.56 279.93 721.63 280.52 719.69 281.09 C 717.62 278.83 717.20 275.74 716.46 272.90 C 717.12 271.94 717.79 270.98 718.45 270.02 C 717.34 268.28 716.26 266.53 715.22 264.76 C 716.58 264.31 717.96 263.86 719.33 263.40 C 719.03 262.78 718.44 261.54 718.14 260.92 C 722.14 258.61 727.56 259.74 730.89 256.29 C 731.35 256.49 732.29 256.90 732.75 257.11 C 736.73 255.64 741.35 256.27 745.04 254.05 C 747.58 251.18 748.77 247.34 751.40 244.50 C 752.23 240.17 754.96 236.61 756.51 232.55 C 759.10 226.15 763.03 220.45 766.35 214.43 C 771.58 207.08 775.37 198.87 780.25 191.30 C 787.53 178.32 794.79 165.33 802.54 152.61 C 806.31 144.86 810.37 137.24 814.87 129.88 C 818.57 124.26 823.27 119.25 826.01 113.04 C 830.67 105.03 836.00 97.40 840.08 89.05 C 844.09 82.73 848.25 76.49 852.48 70.32 C 855.00 65.42 856.90 59.67 861.86 56.63 C 862.17 57.26 862.78 58.54 863.09 59.17 C 864.45 58.93 865.82 58.69 867.19 58.46 C 868.58 59.27 869.88 61.12 871.70 60.64 M 771.20 279.10 C 770.96 279.40 770.47 280.00 770.23 280.31 C 771.15 283.76 775.01 278.53 771.20 279.10 Z"/>
<path fill="#000000" opacity="1.00" d=" M 1030.16 58.27 C 1041.46 58.48 1052.71 57.58 1064.00 57.25 C 1071.24 57.73 1078.64 56.35 1085.75 58.33 C 1088.24 59.18 1090.04 61.23 1092.04 62.86 C 1094.83 65.33 1098.29 67.94 1098.27 72.09 C 1098.63 74.05 1096.26 74.97 1095.21 76.19 C 1096.34 78.80 1098.29 81.18 1098.58 84.10 C 1097.72 86.89 1094.58 86.69 1092.31 87.32 C 1092.31 89.73 1093.33 91.97 1094.10 94.21 C 1092.77 94.88 1091.39 94.72 1090.09 94.14 C 1081.91 91.05 1072.93 91.34 1064.40 92.42 C 1058.21 92.77 1052.05 93.35 1045.92 94.20 C 1034.80 94.32 1023.80 96.19 1012.86 97.94 C 1009.11 98.65 1004.67 99.73 1002.82 103.44 C 999.71 110.37 995.47 116.77 992.96 123.96 C 990.79 130.28 987.58 136.16 985.32 142.44 C 983.02 148.17 977.43 151.94 976.10 158.12 C 993.28 155.38 1010.82 156.79 1028.05 154.53 C 1030.38 154.10 1031.92 156.25 1033.44 157.63 C 1035.88 160.32 1039.79 161.12 1042.04 164.03 C 1044.66 167.34 1046.76 171.05 1049.70 174.12 C 1048.41 175.04 1047.12 175.94 1045.84 176.84 C 1043.61 176.98 1040.88 176.40 1039.53 178.64 C 1041.03 180.86 1042.77 182.91 1044.35 185.07 C 1043.71 187.86 1039.83 185.94 1037.88 185.87 C 1036.80 187.34 1036.14 189.80 1033.92 189.73 C 1029.30 189.93 1024.68 189.34 1020.07 189.71 C 1014.76 190.71 1009.46 191.82 1004.07 192.25 C 1001.86 192.42 999.59 193.09 997.46 192.21 C 993.69 194.16 989.47 194.85 985.27 194.33 C 980.34 196.99 974.46 196.31 969.17 197.82 C 968.20 198.66 967.40 199.77 966.21 200.30 C 960.76 202.14 954.95 202.46 949.44 204.02 C 947.13 208.33 944.73 212.58 943.05 217.19 C 939.16 222.86 936.54 229.23 933.19 235.21 C 932.49 236.63 931.51 238.00 931.50 239.64 C 939.73 238.90 947.91 237.58 956.13 236.71 C 966.61 236.59 976.83 233.70 987.31 233.49 C 990.89 233.46 994.41 232.17 998.01 232.84 C 1002.27 233.49 1006.95 230.34 1010.60 233.87 C 1010.51 234.47 1010.33 235.66 1010.23 236.25 C 1014.74 236.47 1016.14 241.62 1017.03 245.26 C 1019.47 245.38 1021.92 245.42 1024.38 245.48 C 1026.61 248.23 1029.92 250.10 1031.44 253.41 C 1032.20 255.38 1032.70 257.45 1033.43 259.45 C 1031.72 260.92 1029.67 261.88 1027.50 262.44 C 1028.85 264.44 1030.95 266.27 1030.92 268.88 C 1026.57 268.36 1022.26 267.39 1017.86 267.90 C 1017.19 268.70 1016.53 269.51 1015.89 270.32 C 1011.55 267.00 1005.88 269.30 1000.90 268.97 C 1000.72 269.53 1000.36 270.65 1000.18 271.21 C 995.81 271.89 991.26 273.06 986.98 271.38 C 982.07 274.20 976.28 273.03 970.93 274.01 C 962.36 274.04 953.88 276.64 945.31 275.89 C 944.03 274.44 942.40 273.11 940.54 274.52 C 940.28 275.19 939.76 276.54 939.50 277.22 C 935.86 277.86 932.07 279.24 928.45 277.83 C 926.79 276.99 925.27 277.93 923.86 278.74 C 923.37 278.62 922.40 278.37 921.92 278.25 C 918.96 278.88 915.93 278.97 912.96 279.41 C 909.88 277.96 906.73 279.05 903.87 280.40 C 902.95 279.94 902.05 279.48 901.16 279.01 C 899.92 280.04 898.85 281.59 897.08 281.66 C 894.39 281.51 891.79 279.91 889.10 280.79 C 885.49 281.98 881.73 281.53 878.04 281.16 C 876.62 281.14 875.66 280.46 875.16 279.11 C 872.94 279.36 869.91 280.72 868.75 277.93 C 867.89 275.66 868.99 274.40 871.39 274.56 C 869.88 272.99 868.43 271.36 867.26 269.52 C 865.16 268.48 862.74 267.66 861.57 265.47 C 862.49 265.29 864.34 264.94 865.26 264.77 C 865.04 263.29 864.81 261.81 864.60 260.34 C 863.36 259.26 862.14 258.14 861.00 256.98 C 863.32 254.37 866.54 253.01 869.55 251.38 C 870.99 251.18 872.45 250.98 873.92 250.77 C 877.64 247.64 883.72 250.66 887.33 247.31 C 895.34 233.44 902.52 219.09 909.62 204.75 C 905.42 204.80 901.23 205.07 897.11 205.90 C 893.74 206.80 890.20 205.69 886.87 206.73 C 885.07 207.01 882.99 208.07 881.31 206.96 C 878.37 203.75 877.73 199.27 875.29 195.77 C 872.27 197.67 866.66 195.47 868.61 191.38 C 870.50 190.20 872.63 189.44 874.50 188.19 C 874.16 186.53 873.85 184.87 873.60 183.21 C 871.55 183.02 869.46 182.74 867.96 181.20 C 870.66 176.58 876.37 176.22 880.99 174.88 C 886.52 174.33 892.20 173.88 897.11 171.00 C 898.35 171.17 899.59 171.34 900.84 171.51 C 905.56 169.85 910.74 170.45 915.40 168.52 C 920.03 168.31 924.46 166.74 929.11 166.73 C 930.35 166.82 931.52 166.21 932.09 165.06 C 935.96 158.61 939.61 152.02 944.03 145.92 C 946.94 139.13 951.51 133.24 954.70 126.59 C 958.93 117.40 963.82 108.50 969.52 100.14 C 960.31 100.32 950.91 99.45 941.99 102.28 C 940.32 100.99 938.72 99.63 937.19 98.20 C 937.67 96.28 939.01 94.14 937.72 92.25 C 936.48 89.54 932.39 89.00 932.18 85.72 C 931.39 83.97 933.31 83.00 934.73 82.66 C 941.09 81.16 947.42 79.43 953.93 78.71 C 954.02 76.53 954.82 73.85 952.91 72.20 C 951.37 71.24 949.50 70.91 948.09 69.75 C 947.71 66.80 950.20 64.74 952.57 63.57 C 956.80 61.61 961.57 61.85 966.09 61.12 C 987.36 58.67 1008.83 59.52 1030.16 58.27 Z"/>
<path fill="#000000" opacity="1.00" d=" M 205.26 75.35 C 206.86 73.97 208.91 72.26 211.16 73.33 C 214.08 74.46 217.08 75.33 220.24 75.23 C 221.02 79.38 216.29 80.81 213.35 82.26 C 209.87 84.19 206.48 81.12 202.88 81.44 C 201.17 81.62 199.63 80.59 199.09 78.96 C 200.53 76.84 203.51 77.09 205.26 75.35 M 208.26 76.77 C 209.08 78.43 210.58 79.99 212.61 79.50 C 212.42 77.34 209.90 77.16 208.26 76.77 Z"/>
<path fill="#000000" opacity="1.00" d=" M 233.44 77.51 C 236.71 75.92 236.29 82.83 233.24 80.78 C 231.30 80.22 231.66 77.96 233.44 77.51 Z"/>
<path fill="#000000" opacity="1.00" d=" M 178.25 85.00 C 174.92 81.60 180.54 77.37 184.04 77.92 C 186.47 77.60 187.01 80.30 186.35 82.07 C 184.74 81.96 183.13 81.88 181.52 81.84 C 182.73 83.60 184.87 84.04 186.71 84.84 C 186.28 85.54 185.42 86.96 184.99 87.67 C 182.55 87.51 179.64 87.37 178.25 85.00 Z"/>
<path fill="#000000" opacity="1.00" d=" M 153.03 91.02 C 155.61 88.79 157.83 84.40 161.81 85.28 C 164.70 86.04 168.07 84.13 170.25 86.87 C 168.00 88.76 165.83 90.82 164.59 93.54 C 162.61 97.08 158.14 94.20 155.06 94.26 C 153.26 94.70 151.26 92.28 153.03 91.02 M 159.31 88.94 C 159.07 89.25 158.59 89.87 158.35 90.19 C 159.44 93.55 163.15 88.18 159.31 88.94 Z"/>
<path fill="#000000" opacity="1.00" d=" M 196.82 88.72 C 203.79 87.68 210.85 87.24 217.91 87.10 C 223.60 86.40 229.31 87.38 234.90 88.37 C 235.89 88.39 237.41 89.54 236.59 90.58 C 235.97 92.45 233.68 92.05 232.15 92.48 C 231.38 95.02 231.03 97.68 229.99 100.14 C 229.54 100.14 228.64 100.14 228.20 100.14 C 227.69 97.38 227.95 94.57 228.19 91.80 C 225.82 91.67 223.45 91.65 221.08 91.79 C 219.96 97.46 219.42 103.24 219.09 109.01 C 223.31 110.38 227.95 110.87 232.21 112.39 C 231.18 117.06 225.52 115.71 222.09 115.28 C 218.37 114.20 214.72 116.01 210.98 115.53 C 203.98 114.69 196.92 116.14 190.27 118.29 C 186.91 119.14 183.46 119.83 180.42 121.58 C 177.48 123.20 173.93 123.21 171.10 125.08 C 165.91 128.37 160.14 130.67 155.08 134.19 C 152.71 136.15 150.40 138.34 147.35 139.19 C 144.13 141.67 141.11 144.40 137.82 146.78 C 134.83 148.79 133.13 152.13 130.23 154.23 C 126.77 156.45 125.34 160.87 121.32 162.36 C 117.22 168.84 112.78 175.10 108.61 181.52 C 106.20 183.50 104.72 186.18 103.64 189.06 C 103.80 189.77 104.11 191.17 104.27 191.87 C 101.02 192.94 100.21 196.77 98.70 199.47 C 97.18 204.20 93.11 207.89 93.13 213.09 C 90.36 219.61 88.28 226.66 88.39 233.81 C 86.43 242.73 86.25 251.91 85.75 261.01 C 86.55 265.47 86.69 270.13 84.72 274.33 C 87.60 281.26 85.70 288.95 88.00 295.99 C 89.04 299.41 88.57 303.10 89.69 306.50 C 92.04 312.45 94.13 318.55 95.35 324.83 C 97.27 329.44 99.72 333.81 101.58 338.45 C 103.46 343.28 106.96 347.16 109.67 351.51 C 111.95 354.89 115.18 357.67 116.52 361.64 C 120.95 365.49 124.31 370.38 128.74 374.23 C 133.04 377.91 137.39 381.54 141.67 385.23 C 146.61 387.41 150.30 391.67 155.42 393.46 C 158.08 394.72 160.79 395.83 163.64 396.56 C 165.53 398.20 165.54 400.90 165.35 403.20 C 155.27 400.83 146.41 394.94 138.27 388.74 C 129.79 382.72 122.02 375.64 115.46 367.56 C 112.30 363.77 108.25 360.76 105.68 356.49 C 103.01 352.10 99.70 348.07 97.75 343.28 C 93.19 332.74 88.74 322.06 86.17 310.85 C 83.91 305.16 83.71 299.00 82.40 293.08 C 81.42 277.66 79.82 262.16 81.72 246.73 C 82.76 240.18 81.82 233.40 83.99 227.03 C 85.19 217.56 89.21 208.79 93.03 200.14 C 96.75 193.19 99.47 185.64 104.54 179.49 C 109.06 172.14 114.41 165.37 119.31 158.28 C 122.04 154.39 125.64 151.26 129.38 148.38 C 135.50 141.73 143.43 137.19 150.57 131.74 C 156.63 128.13 162.69 124.52 168.91 121.20 C 168.25 114.94 170.66 108.86 169.82 102.60 C 167.43 103.34 165.09 104.66 163.85 106.92 C 161.52 111.65 162.81 117.55 159.71 121.97 C 159.34 121.92 158.59 121.80 158.21 121.74 C 156.63 117.13 160.21 112.57 158.72 107.86 C 156.78 108.56 154.21 109.11 153.46 111.32 C 152.71 114.31 152.36 117.43 152.48 120.52 C 154.70 121.70 158.49 121.10 158.85 124.31 C 155.32 125.42 151.88 123.58 148.56 122.60 C 146.00 121.54 142.26 120.12 143.00 116.63 C 142.20 116.95 140.60 117.58 139.80 117.89 C 137.75 116.77 137.31 114.63 138.45 112.64 C 145.87 109.77 152.07 104.58 159.37 101.46 C 165.92 98.28 172.64 95.43 179.75 93.79 C 184.81 90.38 191.09 90.33 196.82 88.72 M 207.27 102.06 C 207.35 104.25 206.81 106.82 208.59 108.51 C 210.59 110.97 213.99 109.10 216.53 108.83 C 216.54 102.93 215.84 96.82 217.80 91.14 C 214.81 91.89 211.72 91.95 208.68 91.46 C 207.56 94.88 207.18 98.48 207.27 102.06 M 195.05 96.97 C 194.03 101.92 195.80 106.98 195.03 112.01 C 198.01 111.90 200.97 111.55 203.90 110.98 C 204.16 105.02 204.17 99.05 204.07 93.10 C 202.75 93.13 201.44 93.14 200.13 93.14 C 198.25 94.09 195.26 94.32 195.05 96.97 M 185.63 99.11 C 184.96 104.34 183.19 109.63 184.13 114.91 C 186.76 114.88 189.19 113.72 191.60 112.77 C 192.04 106.80 193.19 100.77 192.09 94.80 C 189.67 95.60 185.45 95.59 185.63 99.11 M 175.34 99.82 C 174.75 104.87 173.23 109.88 173.68 115.01 C 173.78 116.52 175.22 117.44 175.97 118.64 C 177.63 117.72 180.30 117.38 180.35 114.98 C 181.12 110.02 181.17 104.96 181.47 99.96 C 179.58 98.89 177.35 99.58 175.34 99.82 M 143.56 115.93 C 145.42 117.06 147.27 118.20 149.14 119.31 C 149.41 117.51 149.63 115.70 149.85 113.89 C 147.63 114.16 145.53 114.90 143.56 115.93 Z"/>
<path fill="#000000" opacity="1.00" d=" M 134.93 97.99 C 135.91 97.61 136.91 97.27 137.92 96.97 C 140.30 98.61 142.87 101.71 141.68 104.74 C 139.84 105.23 137.90 104.66 136.31 103.71 C 134.14 102.62 135.14 99.90 134.93 97.99 Z"/>
<path fill="#000000" opacity="1.00" d=" M 61.34 122.53 C 62.19 121.75 62.59 120.13 63.94 120.12 C 66.07 123.17 65.71 127.06 66.59 130.53 C 68.32 137.27 67.75 144.30 68.41 151.17 C 66.46 157.46 65.30 163.97 64.33 170.46 C 61.86 176.42 60.36 182.74 57.73 188.64 C 56.20 191.95 55.18 195.46 54.41 199.01 C 57.17 196.88 59.22 194.01 61.94 191.83 C 67.07 187.49 73.39 184.77 78.04 179.85 C 80.41 180.09 80.81 183.07 80.40 184.96 C 80.01 188.04 75.84 187.84 74.58 190.40 C 69.73 199.60 65.93 209.26 62.10 218.92 C 60.90 222.03 60.01 225.27 59.71 228.59 C 56.45 232.47 57.78 237.87 57.64 242.50 C 60.69 239.94 62.77 236.43 65.95 234.02 C 68.12 232.32 70.57 231.03 73.00 229.75 C 75.09 232.47 73.09 235.56 72.15 238.29 C 68.62 248.26 65.74 258.45 63.69 268.83 C 61.49 274.77 61.61 281.17 60.35 287.32 C 62.15 289.64 60.19 292.38 60.05 294.92 C 58.80 300.20 59.84 305.62 59.32 310.96 C 59.03 313.67 60.00 316.28 60.13 318.97 C 59.50 320.36 58.16 321.23 57.14 322.30 C 57.49 323.67 57.85 325.04 58.23 326.41 C 62.02 322.23 62.48 316.39 64.55 311.36 C 67.25 304.30 70.37 297.25 75.02 291.24 C 76.24 292.38 77.44 293.53 78.61 294.73 C 78.00 295.77 77.39 296.81 76.80 297.86 C 79.11 303.57 75.64 309.21 76.05 315.00 C 76.38 322.30 75.94 329.78 78.14 336.84 C 78.78 338.27 78.34 339.73 77.75 341.09 C 79.32 354.31 81.58 367.63 87.16 379.83 C 88.25 381.27 87.34 383.11 86.12 384.14 C 84.30 383.76 83.39 381.80 82.47 380.37 C 73.06 359.51 73.17 336.23 71.61 313.83 C 72.17 310.33 73.32 306.91 73.47 303.34 C 72.14 302.53 71.62 304.19 71.02 305.06 C 69.59 308.00 69.04 311.30 67.38 314.15 C 67.81 316.30 67.72 318.50 67.08 320.60 C 62.02 322.50 64.25 328.84 63.31 332.94 C 62.02 338.20 62.61 343.62 62.76 348.97 C 64.80 359.43 65.60 370.38 70.26 380.11 C 69.95 380.73 69.34 381.95 69.03 382.56 C 67.18 381.95 66.94 379.82 66.06 378.36 C 65.57 379.01 64.58 380.30 64.08 380.94 C 59.82 373.39 53.67 367.12 49.29 359.65 C 46.53 354.12 41.74 350.04 38.22 345.04 C 32.48 338.95 26.33 332.70 18.52 329.40 C 18.86 333.55 22.30 336.25 24.00 339.81 C 28.96 348.88 36.07 356.52 43.47 363.64 C 46.73 366.74 52.31 368.61 52.78 373.71 C 52.37 373.93 51.55 374.36 51.13 374.58 C 47.71 371.70 43.93 369.28 40.47 366.46 C 35.00 361.27 29.89 355.70 24.96 349.99 C 22.17 346.90 21.05 342.74 18.39 339.56 C 14.70 334.86 12.92 329.08 10.65 323.64 C 12.11 322.18 13.75 320.91 15.49 319.80 C 21.09 325.58 28.63 329.00 33.95 335.12 C 38.06 338.45 40.71 343.24 44.94 346.36 C 37.76 328.32 29.23 310.72 18.80 294.29 C 16.07 290.37 13.77 286.07 10.03 282.99 C 7.83 281.18 6.38 276.29 9.95 275.19 C 14.45 278.95 18.69 283.12 23.34 286.72 C 29.29 290.05 33.37 295.67 38.51 300.01 C 38.69 293.33 39.75 286.74 40.68 280.16 C 38.11 274.92 37.21 268.65 32.87 264.45 C 32.71 260.39 29.19 257.77 27.79 254.17 C 24.15 245.47 18.08 238.08 11.79 231.16 C 10.88 230.30 10.15 228.96 8.74 228.90 C 8.38 232.68 11.17 235.86 12.98 238.96 C 15.54 243.92 17.44 249.18 19.96 254.16 C 23.25 259.17 26.85 264.01 29.46 269.43 C 31.91 275.87 34.05 282.40 36.20 288.94 C 35.85 289.59 35.14 290.89 34.78 291.53 C 33.87 290.33 32.90 289.14 32.39 287.71 C 30.54 282.64 28.46 277.65 26.62 272.58 C 24.52 266.69 19.77 262.32 17.26 256.65 C 12.91 247.30 6.73 238.69 4.32 228.54 C 3.29 225.44 1.45 222.40 1.84 219.02 C 3.16 216.22 7.02 217.50 8.40 219.63 C 12.23 224.40 16.99 228.39 20.36 233.53 C 24.04 239.04 28.39 244.21 30.64 250.54 C 35.68 257.34 39.38 265.14 41.95 273.21 C 43.83 271.73 43.80 268.95 44.76 266.89 C 45.85 262.88 48.60 259.69 50.62 256.15 C 49.20 253.09 49.08 249.69 48.39 246.44 C 47.51 245.40 46.51 244.39 46.15 243.04 C 43.82 236.58 42.18 229.84 39.23 223.63 C 34.26 215.43 29.48 206.30 20.80 201.45 C 21.66 202.79 22.57 204.10 23.49 205.40 C 24.52 209.11 26.17 212.59 27.99 215.97 C 29.71 218.83 29.15 222.38 30.65 225.33 C 32.52 228.85 32.12 232.99 33.50 236.67 C 35.21 241.36 35.89 246.51 35.00 251.44 C 31.69 249.91 32.46 245.79 31.24 242.92 C 29.58 227.43 22.59 213.21 15.50 199.57 C 14.24 196.62 11.39 194.98 9.33 192.69 C 8.81 190.20 8.75 187.61 9.00 185.09 C 9.79 184.08 11.25 184.36 12.37 184.04 C 13.29 186.44 13.71 189.41 16.04 190.93 C 21.47 194.60 26.36 198.99 31.91 202.51 C 30.82 196.35 29.91 190.15 28.91 183.98 C 27.78 177.35 25.68 170.77 26.11 163.98 C 25.98 159.64 26.30 155.14 24.88 150.97 C 24.74 146.57 26.07 142.33 26.46 137.97 C 26.58 136.53 28.35 137.33 28.86 138.11 C 35.67 142.80 35.06 153.23 42.26 157.48 C 41.42 157.12 39.74 156.39 38.90 156.02 C 41.85 163.48 43.58 171.45 43.61 179.48 C 44.76 180.92 45.88 182.38 46.96 183.87 C 44.77 187.69 46.36 192.19 45.37 196.30 C 45.05 201.61 43.80 206.90 44.40 212.24 C 45.46 211.29 46.43 210.20 46.83 208.80 C 50.79 197.89 53.15 186.41 57.92 175.80 C 60.11 170.76 60.02 165.16 61.36 159.91 C 62.86 153.72 63.59 147.30 62.83 140.95 C 62.41 137.27 63.08 133.33 61.50 129.87 C 56.08 138.33 53.29 148.19 51.83 158.04 C 52.00 163.31 51.74 168.60 50.48 173.74 C 50.25 175.21 48.76 175.93 47.86 176.94 C 46.48 173.34 47.97 169.64 48.27 166.00 C 48.52 161.61 47.90 157.17 48.73 152.82 C 50.05 146.75 51.14 140.54 53.99 134.94 C 55.58 130.85 58.54 127.26 59.06 122.80 C 59.63 122.73 60.77 122.60 61.34 122.53 M 29.82 150.13 C 29.70 153.21 29.93 156.31 30.76 159.29 C 29.86 163.20 30.98 167.13 30.69 171.07 C 30.20 175.47 32.10 179.61 32.77 183.89 C 33.60 187.94 33.02 192.21 34.54 196.12 C 35.48 198.59 35.53 201.24 35.33 203.84 C 34.42 204.47 33.51 205.12 32.61 205.78 C 36.94 208.58 37.86 214.03 41.23 217.64 C 40.68 209.61 41.51 201.57 42.29 193.58 C 41.51 193.59 39.94 193.60 39.16 193.60 C 39.47 185.76 40.47 177.79 38.53 170.07 C 36.53 163.10 33.80 156.20 29.82 150.13 M 61.74 198.71 C 57.52 202.99 53.81 207.79 50.76 212.97 C 49.66 214.76 47.69 215.76 46.46 217.45 C 45.38 219.44 44.85 221.67 44.14 223.81 C 45.41 228.16 46.25 232.74 48.17 236.85 C 52.41 240.60 51.56 246.82 52.15 251.91 C 53.08 250.72 54.34 249.57 54.25 247.92 C 54.52 241.43 54.92 234.93 55.58 228.48 C 58.70 215.79 63.96 203.77 69.06 191.78 C 66.04 193.41 63.97 196.19 61.74 198.71 M 62.58 242.59 C 55.65 250.56 53.22 261.08 48.01 270.06 C 44.72 276.10 44.83 283.29 42.32 289.56 C 42.30 293.24 43.48 300.07 38.26 300.33 C 43.53 305.93 48.83 311.74 51.92 318.88 C 53.06 318.61 54.20 318.34 55.34 318.09 C 54.98 312.43 54.73 306.76 54.56 301.11 C 55.46 293.04 56.56 284.99 57.34 276.91 C 57.81 271.10 60.06 265.65 61.22 259.98 C 62.75 253.04 65.54 246.46 67.04 239.52 C 65.14 239.82 63.79 241.21 62.58 242.59 M 23.78 293.39 C 25.93 298.65 28.50 303.72 31.62 308.48 C 35.15 315.42 38.67 322.41 41.69 329.57 C 44.65 334.52 45.79 340.32 48.93 345.19 C 49.83 347.07 51.68 348.71 51.53 350.95 C 50.94 351.47 49.76 352.53 49.16 353.06 C 55.60 359.56 58.14 369.11 64.94 375.29 C 62.16 366.41 60.70 357.20 59.08 348.05 C 58.62 345.46 59.24 342.60 57.77 340.27 C 55.58 337.06 56.72 332.73 54.37 329.61 C 48.61 323.48 45.65 315.30 40.00 309.06 C 34.91 303.53 30.34 297.30 23.78 293.39 M 45.39 347.28 C 44.72 348.74 46.36 351.18 48.01 350.65 C 48.80 349.28 46.90 346.80 45.39 347.28 Z"/>
<path fill="#000000" opacity="1.00" d=" M 210.28 123.36 C 211.85 122.52 212.57 122.99 212.44 124.76 C 210.11 127.33 207.20 129.42 205.41 132.46 C 202.16 137.39 200.77 143.23 199.95 149.00 C 201.30 150.35 202.67 151.67 204.04 153.01 C 203.36 155.87 200.74 157.05 198.14 155.64 C 194.66 153.72 190.69 155.42 187.91 157.79 C 191.26 159.41 194.36 161.47 197.54 163.37 C 200.75 163.98 204.51 165.81 207.39 163.42 C 209.91 164.09 213.12 164.34 214.20 167.18 C 215.34 168.46 213.49 169.80 213.10 171.01 C 208.54 168.63 203.38 170.52 198.60 169.08 C 198.81 170.40 197.83 172.84 199.70 173.26 C 204.89 174.88 211.74 171.56 215.62 176.60 C 214.76 177.58 213.90 178.55 213.04 179.53 C 209.71 179.28 206.35 179.09 203.03 179.61 C 204.02 180.50 205.03 181.38 206.04 182.26 C 206.14 186.28 205.62 191.07 208.96 194.02 C 210.81 195.34 210.68 197.48 210.46 199.52 C 203.76 199.49 201.77 191.69 201.17 186.33 C 196.21 187.21 190.99 186.05 186.87 183.15 C 185.48 181.64 184.49 179.02 186.27 177.39 C 188.08 174.62 192.00 174.43 193.79 171.69 C 194.47 166.51 187.88 162.56 183.68 165.69 C 182.67 164.63 181.49 163.53 181.41 161.95 C 180.76 159.33 183.26 157.51 184.61 155.61 C 187.34 151.76 192.33 151.39 196.17 149.24 C 196.03 144.43 198.14 140.07 199.66 135.64 C 201.47 130.43 205.17 125.65 210.28 123.36 M 194.35 179.06 C 195.62 181.41 198.84 180.09 200.88 179.92 C 199.19 178.28 196.04 176.38 194.35 179.06 Z"/>
<path fill="#000000" opacity="1.00" d=" M 210.49 150.00 C 210.55 147.03 211.60 144.19 212.89 141.56 C 214.75 142.23 216.47 144.97 218.60 143.63 C 217.55 144.28 216.48 144.90 215.36 145.41 C 213.16 148.15 215.37 152.68 212.11 154.64 C 210.16 154.05 210.71 151.55 210.49 150.00 Z"/>
<path fill="#000000" opacity="1.00" d=" M 298.04 165.72 C 299.42 165.23 299.95 165.68 299.62 167.09 C 298.23 167.58 297.70 167.12 298.04 165.72 Z"/>
<path fill="#000000" opacity="1.00" d=" M 137.87 187.77 C 144.23 186.90 150.63 187.56 157.01 187.67 C 164.06 187.45 171.24 189.44 178.19 188.00 C 179.00 189.27 179.99 190.48 180.40 191.96 C 180.20 194.06 179.40 196.04 178.94 198.09 C 178.35 199.95 179.34 201.93 178.70 203.77 C 177.91 204.38 177.09 204.94 176.23 205.45 C 176.47 206.29 176.71 207.14 176.95 207.99 C 175.72 214.02 172.08 219.79 173.61 226.11 C 174.25 229.76 173.77 233.58 174.85 237.15 C 175.23 239.18 177.48 238.34 178.87 238.39 C 181.52 238.13 184.12 238.82 186.70 239.28 C 187.48 241.22 188.48 243.12 190.19 244.41 C 192.85 243.11 191.34 238.55 194.26 237.44 C 197.33 237.80 200.63 237.92 203.17 239.89 C 202.44 240.96 201.65 242.00 200.82 242.99 C 199.27 243.69 197.52 243.13 195.91 243.16 C 195.05 244.64 194.40 246.22 193.95 247.88 C 190.53 249.11 186.68 250.41 183.10 249.05 C 182.22 247.61 182.04 245.89 181.61 244.29 C 179.58 244.18 177.55 244.10 175.53 243.96 C 175.86 248.68 176.19 253.46 177.82 257.94 C 178.49 266.42 182.57 274.02 184.58 282.16 C 185.16 283.61 184.44 285.05 184.02 286.43 C 183.20 285.84 182.42 285.21 181.69 284.54 C 180.06 279.29 178.08 274.02 174.93 269.49 C 174.34 272.44 175.67 276.28 173.03 278.48 C 171.25 279.30 171.14 276.87 170.62 275.84 C 169.83 272.80 169.90 269.36 172.05 266.88 C 173.08 267.27 174.11 267.66 175.15 268.03 C 173.47 259.69 171.53 251.40 170.77 242.90 C 169.04 234.69 169.64 226.27 168.81 217.97 C 168.34 215.43 170.57 213.77 172.00 212.05 C 167.48 210.31 162.60 210.97 157.89 210.62 C 151.54 210.25 145.18 211.09 138.84 210.60 C 136.83 210.45 134.75 210.56 133.01 211.71 C 134.60 213.47 136.46 215.01 137.86 216.93 C 138.01 218.71 137.90 220.50 137.88 222.29 C 143.31 223.08 148.76 221.87 154.21 222.28 C 153.67 219.33 152.97 215.70 156.14 213.96 C 158.31 216.06 158.12 219.11 158.27 221.88 C 159.89 221.90 161.51 221.88 163.13 222.01 C 164.61 224.69 160.62 224.83 159.02 225.14 C 152.93 225.70 146.79 226.02 140.68 225.96 C 140.11 229.42 143.26 235.78 138.08 236.59 C 137.79 233.22 137.43 229.78 138.66 226.55 C 136.47 226.70 135.95 229.14 136.02 230.94 C 136.05 233.89 135.87 236.83 135.21 239.72 C 142.49 238.93 149.75 240.30 157.04 240.05 C 158.57 239.90 161.51 240.68 160.07 242.75 C 158.87 243.04 157.66 243.33 156.46 243.64 C 155.62 248.66 155.79 253.82 155.14 258.89 C 156.44 258.87 157.75 258.86 159.05 258.86 C 162.55 260.61 166.45 258.60 170.07 259.81 C 169.80 260.30 169.27 261.29 169.00 261.78 C 159.66 262.54 150.31 262.86 140.93 262.95 C 140.96 268.06 140.16 273.12 139.52 278.18 C 142.51 278.25 145.50 278.37 148.45 278.89 C 150.24 276.34 149.78 272.41 153.07 270.96 C 156.93 271.20 155.62 276.44 157.02 278.70 C 161.12 279.21 165.27 279.14 169.37 279.54 C 170.35 280.61 170.19 281.33 168.90 281.69 C 164.48 282.14 160.02 281.65 155.60 281.49 C 156.72 284.17 156.99 287.04 156.07 289.82 C 157.74 293.56 156.43 297.49 154.97 301.05 C 159.96 302.26 165.76 299.96 170.24 302.79 C 171.76 306.66 171.17 311.06 171.62 315.16 C 172.03 317.39 169.65 318.02 167.98 318.30 C 166.35 313.79 167.17 308.88 166.09 304.25 C 157.23 303.87 148.38 303.31 139.52 303.18 C 138.12 309.41 140.38 315.76 138.64 321.93 C 146.75 322.23 154.86 322.71 162.99 322.65 C 164.59 322.41 165.69 323.46 166.46 324.73 C 162.94 325.36 159.34 325.74 155.80 325.06 C 154.38 328.96 154.79 333.13 154.93 337.19 C 154.89 338.47 156.30 339.26 157.44 339.36 C 162.52 339.86 167.66 340.20 172.73 339.41 C 172.86 340.06 173.12 341.37 173.25 342.02 C 167.53 343.03 161.73 341.75 155.97 341.86 C 150.25 341.36 144.50 341.23 138.77 340.95 C 138.32 342.25 137.88 343.55 137.44 344.87 C 137.79 346.13 138.14 347.39 138.51 348.66 C 147.94 349.54 157.55 350.54 166.97 349.19 C 167.67 347.74 168.41 346.32 169.19 344.92 C 169.98 346.23 170.73 347.58 171.46 348.94 C 175.31 348.83 179.09 347.79 182.94 347.95 C 184.66 348.55 185.09 350.35 185.45 351.93 C 179.38 353.43 173.11 353.56 166.99 354.75 C 157.34 355.60 147.62 354.96 137.97 354.41 C 130.87 353.32 123.41 354.99 116.65 351.94 C 115.97 350.17 115.07 348.51 114.30 346.79 C 114.40 340.01 114.76 333.23 115.59 326.50 C 116.87 317.72 116.67 308.78 118.25 300.04 C 118.28 294.50 119.11 289.03 119.91 283.56 C 121.17 276.76 124.71 270.69 125.98 263.90 C 129.19 254.94 131.05 245.51 131.49 236.00 C 131.58 230.52 133.06 225.19 133.71 219.77 C 131.36 216.61 128.69 213.72 126.08 210.79 C 124.77 209.66 125.19 207.25 127.01 206.92 C 131.68 207.59 136.34 206.63 141.02 206.87 C 151.39 205.92 161.82 206.45 172.15 207.69 C 173.11 206.66 174.05 205.63 175.00 204.60 C 173.83 201.05 175.05 197.38 175.70 193.86 C 172.76 190.78 168.21 193.35 164.50 192.41 C 163.65 194.80 162.43 197.10 159.95 198.13 C 158.01 196.44 157.02 193.65 154.91 192.30 C 151.55 192.29 146.35 190.68 144.62 194.60 C 143.69 196.15 142.74 197.69 141.74 199.20 C 138.32 198.56 136.60 195.59 135.29 192.67 C 133.16 192.64 131.03 192.51 128.89 192.57 C 127.27 195.52 129.15 198.86 128.74 201.96 C 127.95 203.15 126.84 204.07 125.87 205.10 C 123.39 202.69 124.38 199.11 124.17 196.05 C 124.37 194.07 123.78 191.74 124.95 190.00 C 128.79 187.52 133.47 187.52 137.87 187.77 M 135.40 243.42 C 134.17 248.65 133.35 254.00 131.61 259.12 C 138.16 259.27 144.71 259.72 151.27 259.85 C 151.66 254.55 151.55 249.23 151.91 243.93 C 146.54 242.57 140.88 243.21 135.40 243.42 M 130.13 266.03 C 129.55 270.14 126.51 273.58 126.72 277.79 C 129.59 277.72 132.47 277.78 135.32 278.14 C 136.54 273.08 135.21 267.72 137.24 262.80 C 134.73 263.17 130.37 262.41 130.13 266.03 M 125.00 281.60 C 124.10 287.54 122.37 293.39 122.48 299.44 C 132.60 298.04 142.64 300.74 152.75 300.80 C 151.81 299.83 150.84 298.89 150.03 297.81 C 149.39 292.71 150.35 287.52 149.61 282.43 C 149.22 282.24 148.46 281.84 148.07 281.64 C 140.38 281.82 132.69 281.71 125.00 281.60 M 119.97 321.17 C 124.68 320.77 129.36 321.98 134.09 321.50 C 135.69 315.32 133.66 308.96 134.93 302.71 C 130.53 302.71 126.02 303.45 121.75 302.08 C 120.65 308.33 121.06 314.85 119.97 321.17 M 120.43 332.90 C 118.92 334.72 118.11 336.90 117.93 339.26 C 120.56 338.35 123.32 338.04 126.08 338.19 C 130.70 338.47 135.35 337.09 139.92 338.16 C 143.67 338.97 147.52 338.58 151.32 338.80 C 150.96 337.40 150.59 336.00 150.22 334.60 C 150.59 331.35 150.73 328.09 150.88 324.83 C 144.28 325.29 137.66 325.30 131.05 325.42 C 127.16 324.96 122.83 326.29 119.55 323.52 C 119.84 326.63 118.41 330.17 120.43 332.90 M 119.99 347.13 C 124.45 348.46 129.19 348.28 133.78 348.04 C 133.70 345.70 133.64 343.37 133.59 341.03 C 128.63 340.80 123.40 343.07 118.68 340.81 C 118.44 342.90 117.25 346.18 119.99 347.13 Z"/>
<path fill="#000000" opacity="1.00" d=" M 807.27 276.31 C 808.02 276.18 809.52 275.93 810.27 275.80 C 810.49 278.58 806.49 280.45 804.18 279.78 C 801.61 277.75 805.76 276.48 807.27 276.31 Z"/>
<path fill="#000000" opacity="1.00" d=" M 801.19 278.51 C 804.51 278.67 799.63 281.47 801.19 278.51 Z"/>
<path fill="#000000" opacity="1.00" d=" M 785.22 281.61 C 787.25 279.56 790.37 279.68 793.06 279.42 C 794.35 279.17 795.22 280.22 796.11 280.95 C 793.88 281.70 791.42 281.88 789.45 283.25 C 788.03 282.73 786.59 282.17 785.22 281.61 Z"/>
<path fill="#000000" opacity="1.00" d=" M 781.39 279.97 C 784.28 278.90 782.96 283.31 780.80 282.90 C 779.03 282.65 780.31 280.29 781.39 279.97 Z"/>
<path fill="#000000" opacity="1.00" d=" M 566.37 282.05 C 567.72 281.52 568.23 281.97 567.90 283.42 C 566.54 283.94 566.03 283.48 566.37 282.05 Z"/>
<path fill="#000000" opacity="1.00" d=" M 986.00 293.72 C 993.70 294.03 1001.31 292.34 1009.02 292.88 C 1014.66 292.75 1016.97 298.73 1020.51 302.05 C 1018.40 303.62 1018.18 306.12 1017.50 308.42 C 1014.99 310.00 1012.10 311.57 1009.05 310.95 C 1001.71 310.24 994.37 311.32 987.04 311.32 C 981.86 310.80 976.55 310.90 971.59 312.61 C 968.07 311.52 964.91 314.17 961.42 314.21 C 955.32 314.47 949.25 315.06 943.24 316.15 C 927.75 316.83 912.46 319.50 897.02 320.81 C 891.29 321.53 885.43 320.81 879.81 322.37 C 865.96 323.17 852.25 325.58 838.42 326.58 C 822.79 329.98 806.73 330.23 790.93 332.46 C 781.03 332.01 771.30 335.04 761.39 334.48 C 753.04 336.67 744.31 336.56 735.79 337.70 C 727.79 337.86 719.89 339.49 711.88 339.40 C 707.88 339.27 703.98 340.32 699.99 340.27 C 692.25 340.23 684.70 342.36 676.96 342.36 C 672.56 342.37 668.45 344.22 664.08 344.50 C 656.02 345.14 648.12 347.08 640.03 347.42 C 626.29 348.22 612.75 350.87 598.99 350.88 C 582.71 353.64 566.03 353.52 549.92 357.26 C 544.19 357.60 538.78 360.01 533.02 359.81 C 524.28 360.82 515.47 361.25 506.87 363.26 C 501.68 364.70 496.33 363.10 491.08 363.83 C 487.28 363.94 483.61 364.84 479.95 365.74 C 475.95 365.75 471.98 366.27 468.43 368.21 C 465.24 367.70 462.31 369.18 459.54 370.52 C 449.69 370.91 439.94 372.73 430.10 373.02 C 413.93 376.38 397.48 378.27 381.27 381.37 C 375.50 383.87 369.16 383.44 363.03 383.77 C 357.02 383.89 351.03 384.97 345.02 384.54 C 343.23 384.64 342.07 383.16 340.78 382.21 C 339.07 380.67 336.85 379.97 334.90 378.85 C 334.08 376.74 335.65 374.74 336.59 372.97 C 336.02 371.58 335.44 370.20 334.86 368.82 C 336.60 367.39 338.75 367.37 340.89 367.46 C 344.21 366.56 347.48 365.42 350.93 365.06 C 348.67 361.91 348.91 357.74 350.24 354.25 C 348.86 350.50 352.89 348.40 354.76 345.78 C 360.77 343.35 367.56 344.66 373.86 343.35 C 379.14 342.11 384.64 342.85 389.92 341.57 C 393.95 340.57 398.17 340.65 402.16 339.44 C 410.35 337.56 418.87 340.12 427.02 337.79 C 428.94 338.29 430.91 338.84 432.92 338.51 C 441.87 336.97 451.06 337.44 460.02 335.99 C 467.97 334.00 476.65 335.76 484.26 332.34 C 486.46 331.87 488.69 333.25 490.95 332.67 C 497.90 331.32 505.00 330.89 511.99 329.82 C 516.12 328.43 520.53 328.78 524.74 327.79 C 528.80 326.73 533.18 328.01 537.11 326.22 C 541.51 324.09 546.50 325.46 551.08 324.13 C 555.64 322.98 560.39 323.84 564.99 322.93 C 569.34 322.06 573.83 322.77 578.14 321.62 C 581.04 320.86 584.02 321.34 586.97 321.42 C 590.56 320.47 594.21 319.67 597.95 319.76 C 604.93 319.87 611.86 318.10 618.84 318.80 C 621.40 317.74 624.16 317.46 626.90 317.85 C 627.31 317.53 628.12 316.90 628.53 316.58 C 634.68 316.61 640.84 316.31 646.98 315.84 C 648.70 315.53 650.39 315.97 652.05 316.46 C 656.24 313.58 661.34 315.24 666.04 314.68 C 673.02 314.07 680.03 313.85 686.98 312.99 C 694.19 311.44 701.59 310.49 708.98 311.06 C 715.11 311.58 720.89 308.81 727.01 308.86 C 737.02 309.89 747.00 307.25 757.04 308.11 C 760.87 308.47 764.66 307.62 768.48 307.47 C 769.02 306.55 769.56 305.63 770.10 304.70 C 770.70 305.56 771.29 306.44 771.88 307.33 C 783.89 306.67 795.94 307.11 807.90 305.61 C 818.22 304.97 828.48 303.43 838.83 303.25 C 844.44 301.80 850.22 301.50 855.99 302.02 C 874.29 300.65 892.62 298.84 910.98 297.96 C 915.61 297.01 920.33 297.05 925.01 297.69 C 933.95 296.53 942.85 294.50 951.92 294.65 C 952.38 294.37 953.30 293.83 953.76 293.56 C 958.45 294.39 963.19 293.09 967.91 293.67 C 973.91 294.55 979.96 293.52 986.00 293.72 M 954.32 312.22 C 954.80 312.77 954.80 312.77 954.32 312.22 Z"/>
<path fill="#000000" opacity="1.00" d=" M 175.78 329.90 C 177.19 329.58 179.13 328.22 180.13 330.00 C 179.13 333.43 180.46 337.92 176.93 340.10 C 174.91 337.02 175.55 333.33 175.78 329.90 Z"/>
<path fill="#000000" opacity="1.00" d=" M 952.08 349.13 C 953.92 348.56 956.59 346.94 958.11 348.84 C 958.91 349.99 959.30 351.37 959.89 352.65 C 960.90 351.84 961.93 351.03 962.97 350.24 C 964.95 352.07 967.24 353.74 968.62 356.11 C 969.55 359.56 970.40 363.08 972.31 366.16 C 970.56 371.80 967.41 377.09 967.27 383.15 C 966.29 385.14 965.10 387.01 963.78 388.80 C 960.25 393.82 958.04 399.58 954.92 404.84 C 951.96 410.79 947.56 415.84 944.50 421.73 C 947.60 421.60 950.62 420.88 953.68 420.39 C 955.50 421.14 955.92 423.45 957.14 424.88 C 958.04 424.14 958.88 423.33 959.76 422.55 C 959.02 422.11 957.55 421.25 956.81 420.81 C 958.01 420.07 959.23 419.16 960.74 419.22 C 961.10 420.29 961.41 421.40 961.65 422.53 C 963.25 423.32 964.80 422.16 966.27 421.60 C 967.27 418.19 971.30 419.24 973.97 418.20 C 974.94 418.53 975.93 418.85 976.93 419.16 C 976.76 419.83 976.44 421.17 976.28 421.84 C 977.80 421.64 979.34 421.43 980.89 421.22 C 981.18 420.72 981.77 419.71 982.07 419.20 C 983.16 419.28 984.26 419.35 985.37 419.41 C 985.77 421.07 986.49 422.50 988.39 422.78 C 988.21 421.82 987.84 419.91 987.65 418.96 C 992.83 417.39 997.80 419.80 1002.23 422.24 C 1001.47 423.44 1000.70 424.63 999.96 425.84 C 1001.34 426.29 1002.73 426.75 1004.12 427.24 C 1002.87 430.07 1000.54 432.37 997.89 433.88 C 994.55 434.88 991.75 437.00 988.65 438.48 C 985.79 439.27 982.74 439.00 979.92 439.96 C 979.60 441.13 979.00 442.09 978.13 442.84 C 977.76 442.13 977.02 440.70 976.65 439.98 C 974.43 439.40 972.36 439.78 970.84 441.58 C 965.42 440.81 960.18 442.47 954.91 443.37 C 949.54 443.50 944.34 445.10 938.95 444.96 C 934.34 447.68 934.84 453.70 932.56 457.93 C 930.52 461.70 929.06 465.81 926.61 469.34 C 924.01 470.69 920.98 470.55 918.15 470.84 C 917.12 471.60 916.51 473.35 915.01 473.14 C 912.84 472.69 911.08 471.20 909.18 470.19 C 907.46 473.04 903.87 473.22 900.92 473.26 C 898.98 470.18 902.08 467.56 903.38 464.98 C 903.50 462.66 902.50 460.42 902.71 458.10 C 903.28 454.84 904.56 451.77 905.65 448.67 C 898.98 447.60 892.13 449.88 885.60 447.71 C 882.73 446.60 879.87 447.80 877.32 449.11 C 876.00 451.21 874.73 453.34 873.61 455.56 C 872.19 458.54 869.53 460.81 868.65 464.07 C 867.87 467.14 865.35 469.53 862.22 470.09 C 861.72 469.83 860.70 469.31 860.19 469.05 C 858.49 470.74 856.27 471.40 853.99 470.51 C 852.63 470.90 851.28 471.29 849.94 471.69 C 848.02 470.15 846.05 468.69 844.13 467.17 C 845.35 465.24 847.73 463.59 847.50 461.06 C 847.09 456.89 848.63 452.97 849.35 448.93 C 850.04 444.33 853.18 440.66 854.63 436.32 C 859.02 432.96 861.13 427.73 864.41 423.45 C 866.78 420.21 869.11 416.90 872.03 414.11 C 874.16 412.20 875.20 409.39 877.37 407.49 C 877.98 404.44 880.29 402.34 882.28 400.13 C 885.66 398.24 887.07 394.39 889.90 391.91 C 892.92 389.23 895.64 386.23 898.50 383.39 C 914.75 369.64 933.24 358.90 952.08 349.13 M 925.11 387.04 C 922.34 390.92 917.98 393.26 915.17 397.12 C 910.41 403.07 903.62 407.39 900.20 414.36 C 896.34 419.22 892.95 424.48 889.84 429.85 C 893.62 428.83 897.54 428.75 901.38 428.04 C 905.57 427.13 909.79 426.39 914.06 425.93 C 915.56 425.63 917.34 425.79 918.60 424.74 C 922.60 413.65 928.51 403.38 933.94 392.95 C 937.38 386.76 939.87 379.97 944.65 374.62 C 945.83 373.25 946.68 369.83 944.92 369.04 C 936.13 372.05 929.88 379.42 925.11 387.04 Z"/>
<path fill="#000000" opacity="1.00" d=" M 92.19 373.03 C 92.72 366.25 93.30 359.00 96.87 353.04 C 98.07 354.04 99.62 354.75 100.42 356.16 C 100.77 358.76 99.87 361.50 100.94 364.02 C 102.95 369.79 103.81 375.96 106.64 381.44 C 108.56 386.86 111.77 391.70 113.67 397.13 C 115.37 402.09 118.77 406.15 121.33 410.66 C 124.44 413.01 125.48 417.01 128.33 419.60 C 130.73 421.93 132.78 424.58 134.49 427.47 C 137.03 429.96 140.57 431.12 143.80 432.47 C 144.96 434.07 145.02 437.14 147.44 437.30 C 152.78 437.74 158.08 438.71 163.35 439.66 C 165.26 439.81 167.17 441.86 164.98 443.30 C 157.28 442.61 149.73 439.82 141.91 440.33 C 138.60 440.53 135.19 439.98 132.03 441.26 C 128.97 442.44 125.68 442.17 122.49 442.54 C 118.00 443.60 113.64 445.22 109.51 447.31 C 106.97 448.59 103.92 449.25 102.15 451.67 C 108.06 450.93 113.99 450.37 119.96 450.26 C 129.56 449.06 139.00 451.76 148.47 452.77 C 145.58 450.22 140.72 451.43 138.36 448.04 C 138.90 445.92 141.57 446.92 143.09 446.94 C 146.57 447.56 150.01 448.55 153.23 450.03 C 153.69 452.71 150.40 451.63 148.89 452.23 C 151.21 454.04 154.22 454.06 156.83 455.16 C 158.38 456.69 157.24 458.98 155.08 457.90 C 146.68 454.98 137.74 454.42 129.00 453.12 C 121.12 452.47 113.21 453.52 105.41 454.62 C 101.73 454.94 98.07 455.46 94.49 456.41 C 92.51 458.93 88.94 458.84 87.24 456.03 C 92.94 449.31 101.24 445.76 108.98 441.97 C 119.75 436.95 131.83 436.80 143.48 436.96 C 140.33 434.30 136.15 433.46 132.66 431.35 C 129.87 429.91 128.27 427.09 126.21 424.85 C 121.88 420.03 118.79 414.27 114.76 409.21 C 111.39 404.78 110.35 399.17 107.60 394.40 C 102.98 386.59 100.56 377.74 98.22 369.04 C 97.95 367.87 97.33 366.94 96.37 366.23 C 95.46 370.02 95.39 373.93 96.31 377.73 C 98.03 385.60 98.01 393.96 101.29 401.40 C 100.89 403.92 101.68 406.52 104.00 407.82 C 108.09 410.86 111.88 414.26 115.79 417.52 C 115.51 418.47 115.23 419.43 114.93 420.39 C 109.39 418.27 106.00 412.90 100.96 409.89 C 94.12 404.73 87.98 398.43 79.99 395.02 C 70.78 389.82 60.57 386.57 50.18 384.83 C 52.25 388.44 56.41 389.83 59.54 392.29 C 65.79 397.63 73.12 401.46 79.76 406.24 C 84.29 410.56 90.20 413.31 96.30 414.56 C 103.70 417.20 109.80 422.37 116.09 426.92 C 117.97 428.50 119.86 430.09 121.43 431.99 C 122.04 433.57 119.32 434.99 118.28 433.71 C 112.14 429.11 106.34 423.89 99.36 420.59 C 93.57 418.31 87.13 417.66 81.82 414.17 C 76.08 410.39 68.74 410.72 63.00 406.99 C 57.76 403.74 50.84 404.91 45.87 401.15 C 44.07 400.23 44.77 397.23 46.92 397.54 C 52.25 399.14 58.09 399.22 62.97 402.10 C 66.10 403.72 69.39 405.02 72.71 406.21 C 72.14 403.91 69.61 403.32 67.95 402.05 C 62.03 398.05 56.00 394.17 50.51 389.57 C 47.49 386.97 43.83 385.30 40.14 383.90 C 36.34 382.53 32.02 383.62 28.32 381.92 C 26.48 380.78 27.35 378.72 28.79 377.73 C 29.12 376.44 29.17 374.73 30.93 374.71 C 33.02 375.08 33.99 377.45 35.99 378.02 C 53.96 380.25 72.37 384.03 87.66 394.22 C 91.69 396.02 94.53 399.41 97.60 402.45 C 95.56 392.68 93.94 382.83 92.19 373.03 Z"/>
<path fill="#000000" opacity="1.00" d=" M 770.98 362.18 C 774.65 361.70 778.27 360.76 781.99 360.65 C 789.03 360.11 795.96 361.84 802.98 362.00 C 808.31 363.18 813.52 365.08 818.39 367.60 C 823.30 370.14 827.25 374.08 831.61 377.41 C 836.59 382.29 840.12 388.40 843.55 394.42 C 847.20 400.81 850.16 407.71 851.19 415.04 C 852.33 421.49 854.10 428.60 850.81 434.74 C 848.45 438.45 847.54 443.06 844.18 446.09 C 838.91 451.19 834.12 456.82 828.57 461.61 C 822.66 464.62 816.17 466.33 810.17 469.15 C 804.82 469.97 799.44 472.14 793.99 471.04 C 790.26 471.62 785.95 473.88 782.39 471.99 C 783.24 470.79 784.43 469.78 784.95 468.36 C 782.06 468.00 779.04 468.60 776.25 467.60 C 774.03 466.54 773.31 463.93 772.00 462.05 C 768.84 466.18 764.47 469.09 761.07 472.98 C 759.17 474.99 755.20 475.04 754.57 471.80 C 753.64 472.49 752.72 473.19 751.81 473.90 C 748.61 473.68 746.01 471.82 744.32 469.18 C 746.17 465.73 748.11 462.31 749.73 458.74 C 751.03 456.02 750.35 452.67 752.17 450.16 C 757.37 443.01 759.81 434.26 765.25 427.26 C 768.47 423.20 769.60 417.96 772.82 413.90 C 775.48 410.65 776.75 406.57 779.29 403.24 C 784.01 396.57 787.39 389.12 791.35 382.02 C 790.95 380.06 788.33 380.87 786.93 380.49 C 782.56 380.23 778.33 381.58 774.02 381.94 C 770.77 382.24 767.44 382.31 764.34 383.44 C 762.27 384.49 760.91 386.51 758.95 387.71 C 756.08 387.18 754.26 384.75 752.34 382.80 C 751.13 379.16 749.88 375.53 749.23 371.74 C 751.00 369.94 752.90 368.12 755.42 367.46 C 760.66 365.86 765.48 362.93 770.98 362.18 M 808.91 385.48 C 807.79 389.99 806.12 394.34 804.88 398.81 C 801.12 406.46 796.39 413.66 793.19 421.60 C 790.31 426.27 787.63 431.07 784.84 435.80 C 782.75 441.10 778.80 445.32 776.44 450.47 C 775.45 452.68 773.46 454.93 774.13 457.49 C 779.31 458.64 784.66 458.66 789.85 457.51 C 796.69 456.88 803.28 454.96 809.72 452.66 C 814.60 452.13 818.24 448.70 822.33 446.36 C 825.15 442.23 829.20 439.13 831.88 434.89 C 834.18 431.37 837.36 428.25 838.24 423.99 C 838.88 420.81 840.53 417.33 839.01 414.19 C 836.75 408.62 834.52 402.93 830.89 398.08 C 824.96 391.83 817.10 387.87 808.91 385.48 Z"/>
<path fill="#000000" opacity="1.00" d=" M 701.33 369.51 C 701.97 368.34 702.59 367.17 703.21 365.99 C 703.53 367.25 703.71 368.53 703.77 369.84 C 704.54 369.87 706.07 369.91 706.83 369.94 C 708.01 368.65 708.97 366.70 711.02 366.80 C 712.08 367.42 712.98 368.28 713.94 369.07 C 716.59 367.61 721.17 366.36 722.68 369.94 C 722.76 371.48 721.39 372.44 720.49 373.48 C 713.94 379.69 711.39 388.68 707.33 396.48 C 704.46 400.97 700.34 404.81 699.17 410.21 C 694.83 419.78 690.09 429.28 683.74 437.70 C 682.07 440.87 680.24 443.98 677.61 446.45 C 676.68 448.97 675.65 451.45 674.54 453.90 C 681.32 454.08 688.17 453.20 694.89 454.49 C 698.23 455.14 701.65 454.11 705.00 454.83 C 708.95 455.57 712.86 456.78 716.93 456.53 C 719.36 458.20 722.13 459.09 725.08 458.37 C 724.39 461.03 722.13 462.56 720.22 464.31 C 720.28 466.20 720.80 468.04 720.80 469.95 C 718.30 473.01 713.93 473.95 710.16 473.28 C 701.85 476.57 692.78 475.01 684.19 476.07 C 683.61 475.85 682.45 475.42 681.88 475.20 C 680.34 475.96 678.91 477.34 677.07 476.98 C 672.65 476.60 668.27 477.37 663.94 478.12 C 661.28 478.75 658.77 477.06 656.11 477.49 C 651.37 478.31 646.82 476.04 642.07 476.72 C 638.90 477.37 635.90 474.36 632.86 475.98 C 629.80 477.35 626.37 476.24 623.34 475.37 C 621.71 473.40 622.57 470.23 620.75 468.30 C 619.19 466.48 617.53 464.76 616.03 462.90 C 617.98 459.77 621.86 459.50 625.12 458.78 C 628.33 458.01 631.66 458.51 634.92 458.05 C 638.73 458.94 643.29 456.16 646.02 460.02 C 647.82 453.51 652.51 448.45 655.58 442.56 C 659.53 434.45 664.56 426.94 669.09 419.16 C 675.16 410.48 678.34 400.14 684.48 391.49 C 687.24 388.53 689.13 384.92 691.65 381.77 C 693.19 376.79 695.80 370.89 701.33 369.51 Z"/>
<path fill="#000000" opacity="1.00" d=" M 601.59 375.46 C 604.89 374.44 608.53 374.79 611.49 376.64 C 613.32 378.11 613.42 380.67 614.05 382.76 C 616.57 384.58 615.63 387.44 615.19 390.04 C 611.15 393.72 605.61 391.69 600.79 392.80 C 598.02 393.91 595.06 391.05 592.62 393.42 C 586.04 396.16 578.94 397.05 572.17 399.10 C 569.69 403.82 567.58 408.75 564.79 413.32 C 567.40 415.46 570.86 414.62 573.96 414.71 C 580.01 414.51 586.38 416.70 592.09 413.75 C 596.15 414.71 599.78 417.30 604.08 417.22 C 605.77 417.36 607.51 417.40 609.13 418.01 C 609.40 419.44 607.67 420.06 606.93 421.00 C 607.13 421.47 607.54 422.43 607.74 422.91 C 606.78 423.93 605.82 424.96 604.86 426.00 C 604.90 427.41 604.95 428.83 604.99 430.26 C 596.37 431.39 587.89 434.14 579.10 433.50 C 576.81 434.47 574.56 435.73 572.04 435.97 C 564.47 436.69 556.73 437.22 549.45 439.50 C 546.31 443.27 545.37 448.27 543.08 452.53 C 548.33 454.46 554.18 452.52 559.46 454.57 C 562.77 455.91 566.12 453.54 569.50 454.43 C 578.42 455.85 587.48 454.59 596.36 456.36 C 594.97 459.18 591.51 459.00 588.85 459.32 C 585.30 459.34 582.03 460.89 578.53 461.24 L 578.66 462.57 C 583.53 463.03 588.26 460.56 593.04 461.75 C 592.65 464.12 592.71 467.02 590.70 468.71 C 581.90 472.66 571.92 470.74 562.85 473.50 C 558.87 473.78 554.86 473.86 550.95 474.74 C 545.22 475.08 539.48 474.10 533.76 474.36 C 532.91 473.99 532.07 473.63 531.24 473.28 C 530.66 473.63 529.50 474.34 528.92 474.69 C 525.02 473.69 521.09 472.53 517.04 472.49 C 512.42 472.32 507.95 474.63 503.32 473.62 C 501.35 471.13 501.11 467.54 498.60 465.41 C 497.32 464.78 495.92 464.53 494.59 464.12 C 495.50 461.96 495.09 458.48 497.97 457.84 C 501.01 457.56 504.09 458.17 507.11 457.49 C 509.48 456.85 511.88 457.33 514.20 457.94 C 517.22 452.41 519.44 446.50 522.19 440.84 C 523.59 438.06 519.49 438.31 517.90 437.90 C 514.18 439.53 510.03 439.09 506.09 439.38 C 503.04 439.25 500.33 442.20 497.24 440.90 C 494.57 438.91 496.75 434.78 494.64 432.38 C 492.99 430.55 490.20 429.19 490.25 426.37 C 494.83 425.13 499.63 424.76 504.13 423.15 C 512.43 420.04 521.85 423.91 529.94 420.02 C 533.14 416.14 535.43 411.36 536.83 406.49 C 538.19 403.56 539.71 400.71 540.95 397.73 C 533.30 397.46 525.69 399.31 518.08 397.98 C 515.31 396.93 514.20 393.97 513.31 391.41 C 511.16 389.55 509.16 385.23 512.63 383.67 C 519.61 382.00 527.18 382.63 533.84 379.54 C 536.76 381.95 540.06 379.88 543.04 378.77 C 544.86 379.20 546.72 379.52 548.59 379.79 C 549.03 379.48 549.92 378.85 550.36 378.54 C 563.37 375.43 576.80 377.16 589.97 375.73 C 593.84 375.63 597.78 376.58 601.59 375.46 Z"/>
<path fill="#000000" opacity="1.00" d=" M 430.97 393.56 C 433.95 392.74 436.78 391.13 439.97 391.27 C 445.74 391.58 451.59 391.69 457.27 390.46 C 459.20 391.41 459.81 393.95 459.91 395.95 C 458.26 401.00 452.55 401.85 449.00 405.00 C 446.10 407.26 442.22 407.82 439.56 410.44 C 438.28 410.92 437.02 411.41 435.76 411.90 C 435.14 411.79 433.91 411.57 433.29 411.45 C 430.27 414.30 426.03 414.33 422.28 415.43 C 419.00 416.57 418.05 420.15 416.73 422.97 C 422.58 422.67 428.36 421.92 434.05 420.55 C 439.15 420.37 443.81 417.78 448.94 418.03 C 450.48 419.40 452.09 420.68 453.66 422.03 C 452.71 423.07 451.76 424.12 450.80 425.15 C 450.98 425.89 451.35 427.37 451.53 428.11 C 450.93 428.33 449.73 428.79 449.13 429.01 C 448.33 428.27 447.55 427.53 446.77 426.80 C 445.77 428.94 444.63 431.12 442.88 432.75 C 439.99 433.90 436.80 433.48 433.78 433.76 C 431.29 435.22 428.91 437.09 425.92 437.32 C 421.52 437.70 417.38 439.50 412.95 439.58 C 410.25 439.22 409.36 442.25 407.90 443.90 C 407.34 443.50 406.22 442.70 405.66 442.30 C 404.79 444.28 404.47 446.40 404.40 448.55 C 403.88 449.35 403.35 450.15 402.82 450.95 C 403.67 450.81 405.39 450.54 406.25 450.40 C 405.96 453.67 405.40 457.48 402.01 458.97 C 403.25 458.91 404.49 458.88 405.74 458.85 C 405.79 459.72 405.89 461.45 405.94 462.32 C 411.39 462.72 416.61 460.39 422.06 461.00 C 423.07 459.69 423.97 458.30 424.99 457.01 C 425.37 457.78 426.11 459.32 426.49 460.09 C 428.81 459.38 430.88 458.14 432.15 456.01 C 432.63 456.38 433.59 457.11 434.07 457.47 C 436.35 456.59 438.63 455.73 440.92 454.85 C 441.77 455.38 442.62 455.92 443.48 456.46 C 444.23 459.88 446.62 462.45 449.55 464.22 C 448.58 465.58 447.29 466.64 445.77 467.33 C 445.73 467.88 445.67 468.98 445.63 469.52 C 445.08 469.72 443.99 470.11 443.44 470.31 C 443.39 470.89 443.31 472.05 443.27 472.64 C 440.21 473.89 437.23 475.34 434.02 476.18 C 432.14 475.52 430.11 474.33 428.12 475.34 C 424.59 476.96 420.63 475.97 417.03 477.25 C 411.56 475.11 405.51 477.35 399.90 475.58 C 398.58 476.26 397.26 476.96 395.94 477.66 C 394.63 476.59 393.38 475.41 391.89 474.59 C 387.86 473.88 383.85 475.90 379.83 475.09 C 378.82 473.51 380.01 471.69 380.13 470.03 C 379.70 469.49 378.84 468.42 378.41 467.88 C 379.34 467.21 380.28 466.56 381.24 465.93 C 381.34 465.37 381.54 464.24 381.64 463.68 C 383.25 463.65 385.67 463.26 385.34 461.06 C 385.00 457.71 386.32 454.62 387.86 451.75 C 387.51 450.62 387.17 449.49 386.84 448.37 C 387.49 448.21 388.80 447.91 389.45 447.75 C 389.91 443.94 391.88 440.56 392.62 436.84 C 393.35 433.79 390.21 431.88 388.79 429.58 C 390.59 428.63 393.19 428.16 393.87 425.93 C 395.70 420.71 397.32 415.43 398.97 410.15 C 396.32 409.88 393.43 410.09 391.16 408.46 C 392.13 406.92 393.12 405.40 394.11 403.87 C 392.38 403.83 388.51 405.21 389.06 402.21 C 393.73 399.61 398.45 396.80 403.75 395.66 C 412.72 393.99 421.87 393.79 430.97 393.56 Z"/>
<path fill="#000000" opacity="1.00" d=" M 132.82 402.00 C 133.59 401.08 134.36 400.17 135.13 399.26 C 139.44 399.56 140.13 404.24 141.65 407.38 C 143.36 410.51 145.80 413.18 147.46 416.35 C 150.73 422.36 156.95 425.67 162.02 429.92 C 165.04 432.44 168.71 433.98 172.38 435.28 C 172.13 436.63 172.24 438.30 170.70 438.92 C 168.14 438.83 165.71 437.73 163.64 436.29 C 158.24 432.48 153.60 427.68 148.04 424.08 C 149.06 427.75 151.94 430.46 153.31 433.95 C 152.98 434.58 152.33 435.82 152.00 436.45 C 147.46 430.45 143.25 424.19 139.20 417.85 C 136.81 412.68 133.05 407.92 132.82 402.00 M 142.48 416.86 C 142.13 418.28 142.64 418.79 144.01 418.39 C 144.35 416.96 143.84 416.45 142.48 416.86 Z"/>
<path fill="#000000" opacity="1.00" d=" M 322.18 404.33 C 330.10 402.79 337.89 400.11 346.06 400.40 C 350.09 400.08 354.10 402.54 358.01 400.67 C 361.72 404.55 366.20 407.51 370.76 410.28 C 375.13 414.13 379.67 418.93 380.09 425.05 C 380.42 429.38 383.09 433.38 381.82 437.82 C 381.90 442.24 379.64 446.21 379.59 450.59 C 378.65 451.67 377.71 452.75 376.78 453.83 C 376.33 453.51 375.42 452.88 374.97 452.56 C 373.72 454.36 372.14 455.96 371.22 457.97 C 370.71 460.01 370.81 462.14 370.39 464.20 C 366.14 467.95 360.94 470.31 356.10 473.17 C 355.53 474.49 355.46 476.36 353.88 476.95 C 350.40 478.73 346.36 479.02 342.93 480.92 C 342.24 480.83 340.86 480.66 340.17 480.57 C 338.25 481.20 336.28 481.64 334.29 481.95 C 331.67 480.65 329.24 479.01 326.61 477.74 C 323.69 476.87 320.82 475.83 318.03 474.63 C 317.81 473.92 317.37 472.51 317.15 471.81 C 318.49 471.60 319.84 471.40 321.18 471.20 C 320.87 469.86 319.17 466.99 321.77 466.94 C 324.95 467.44 329.71 468.81 331.15 464.79 C 329.72 465.21 328.36 465.81 327.01 466.41 C 324.73 464.92 321.22 463.50 322.19 460.09 C 324.04 453.19 326.05 446.22 329.53 439.93 C 329.98 433.35 333.34 427.43 335.43 421.27 C 336.91 418.02 337.53 414.32 339.92 411.54 C 336.94 411.01 333.98 410.35 330.97 410.09 C 326.42 410.58 322.08 412.17 317.63 413.12 C 317.41 409.50 320.61 407.24 322.18 404.33 M 353.84 435.95 C 350.41 441.41 347.20 447.06 345.14 453.19 C 344.08 456.98 341.45 460.15 341.03 464.15 C 345.11 463.48 348.46 460.91 351.91 458.82 C 354.39 457.03 357.40 455.54 358.69 452.60 C 360.78 448.35 362.78 443.84 362.82 439.01 C 363.26 434.97 360.77 431.55 359.50 427.90 C 356.23 429.35 355.64 433.21 353.84 435.95 M 329.97 464.66 C 331.70 463.66 332.28 461.76 332.84 459.98 C 330.34 460.06 330.08 462.72 329.97 464.66 Z"/>
<path fill="#000000" opacity="1.00" d=" M 43.25 403.31 C 48.36 403.05 53.09 406.26 57.83 407.99 C 64.98 410.22 70.95 414.90 77.35 418.63 C 81.37 420.82 84.48 424.28 88.37 426.67 C 92.27 429.08 95.95 431.82 99.57 434.63 C 100.83 435.37 101.22 436.63 100.89 438.03 C 97.25 438.90 95.27 435.06 92.68 433.31 C 80.47 423.99 67.70 414.91 53.08 409.80 C 50.66 408.90 47.89 408.89 45.73 407.35 C 44.41 406.40 42.58 405.21 43.25 403.31 Z"/>
<path fill="#000000" opacity="1.00" d=" M 772.53 469.96 C 775.26 469.57 779.29 469.33 780.30 472.63 C 778.50 472.83 776.70 473.46 774.90 473.17 C 773.63 472.55 773.26 471.02 772.53 469.96 Z"/>
</g>
</svg>